<?xml version="1.0" standalone="no"?>
<!DOCTYPE svg PUBLIC "-//W3C//DTD SVG 20010904//EN"
 "http://www.w3.org/TR/2001/REC-SVG-20010904/DTD/svg10.dtd">
<svg version="1.0" xmlns="http://www.w3.org/2000/svg"
 width="300.000000pt" height="351.000000pt" viewBox="0 0 300.000000 351.000000"
 preserveAspectRatio="xMidYMid meet">
<metadata>
Created by potrace 1.10, written by Peter Selinger 2001-2011
</metadata>
<g transform="translate(0.000000,351.000000) scale(0.100000,-0.100000)"
fill="#000000" stroke="none">
<path d="M1550 3303 c-34 -12 -114 -102 -145 -164 -41 -80 -78 -192 -72 -216
4 -16 5 -16 11 2 4 11 12 30 18 42 6 11 8 25 5 30 -4 5 0 10 8 10 7 0 18 -11
25 -25 9 -20 8 -27 -7 -37 -71 -50 -78 -78 -18 -68 35 6 41 0 29 -31 -3 -9
-10 -14 -15 -11 -4 3 -6 12 -2 20 3 8 0 15 -7 15 -6 0 -9 -4 -5 -9 3 -5 -3
-12 -12 -14 -17 -4 -17 -5 0 -6 9 0 17 -5 17 -11 0 -17 26 -11 45 10 11 12 13
20 6 20 -7 0 -9 5 -6 11 4 6 9 8 12 5 4 -3 15 5 27 18 29 32 77 63 109 71 15
4 24 11 21 16 -3 5 -10 6 -16 3 -7 -4 -8 -2 -4 4 4 6 13 9 21 5 8 -3 15 0 15
6 0 17 -25 13 -50 -9 -13 -11 -32 -20 -42 -20 -11 0 -16 -5 -13 -11 4 -6 1 -9
-6 -8 -8 1 -22 -1 -31 -5 -10 -5 -23 -6 -30 -3 -7 3 4 12 25 21 39 17 50 35
20 32 -10 0 -17 5 -15 12 1 8 -2 11 -8 7 -5 -3 -10 3 -10 14 0 11 -5 23 -11
27 -8 4 -9 -4 -4 -27 4 -19 11 -35 16 -37 5 -2 9 -7 9 -11 0 -10 -39 -11 -45
0 -3 5 1 6 10 3 11 -5 14 -2 9 10 -4 10 -13 15 -20 12 -17 -7 -26 7 -18 28 6
15 8 15 21 -1 13 -17 13 -17 4 2 -7 15 -5 26 9 42 10 12 21 19 25 15 4 -4 4 3
1 16 -5 13 -3 22 3 22 6 0 11 7 11 16 0 8 4 13 9 9 5 -3 12 -1 16 5 3 5 -1 10
-10 10 -13 0 -11 7 9 33 15 19 26 38 26 43 0 15 -50 -48 -65 -83 -24 -52 -87
-150 -80 -123 13 48 88 169 128 207 23 21 35 29 27 19 -14 -18 -13 -18 10 -11
14 4 27 8 30 8 11 2 76 -37 91 -54 9 -11 24 -19 33 -19 9 0 15 -3 15 -7 -3
-19 2 -33 11 -33 5 0 7 8 4 18 -3 9 2 6 10 -8 18 -29 22 -125 5 -115 -6 4 -8
13 -5 21 3 8 1 14 -5 14 -6 0 -7 6 -3 13 5 9 4 9 -6 0 -11 -10 -11 -22 0 -66
7 -30 10 -61 8 -68 -3 -8 3 -23 13 -34 9 -11 19 -26 21 -34 2 -7 13 -24 25
-36 23 -24 53 -111 53 -153 0 -20 -5 -16 -26 24 -14 27 -30 57 -36 68 -7 12
-13 15 -20 8 -8 -8 -6 -16 6 -27 9 -9 16 -21 16 -26 0 -12 -27 -11 -35 2 -5 6
-12 4 -20 -8 -12 -16 -14 -14 -21 24 -4 25 -11 40 -17 36 -5 -3 -7 -1 -4 4 4
6 -4 18 -17 26 -31 21 -53 74 -39 96 9 14 5 16 -21 14 -17 -1 -33 -2 -35 -2
-2 -1 7 -10 20 -21 13 -10 19 -19 14 -20 -6 0 -16 5 -23 12 -9 9 -12 8 -12 -4
0 -18 26 -31 42 -22 6 4 9 1 6 -7 -3 -8 -10 -15 -16 -15 -7 -1 -16 -2 -22 -3
-5 0 -10 -6 -10 -12 0 -6 6 -9 14 -6 9 4 16 -3 20 -19 9 -36 26 -19 20 19 -4
26 -3 28 5 11 5 -12 14 -25 20 -29 6 -3 11 -15 11 -26 0 -11 7 -22 15 -25 13
-6 21 -26 39 -106 4 -16 11 -28 17 -28 6 0 6 6 -1 19 -13 25 -13 44 0 36 7 -4
9 2 5 17 -5 21 -3 23 26 22 21 -1 37 -8 45 -20 13 -21 30 -103 18 -92 -12 13
-34 -13 -34 -41 -1 -22 -2 -23 -11 -9 -7 13 -5 25 8 45 10 15 12 24 6 20 -12
-8 -18 15 -14 51 3 18 -26 15 -33 -4 -4 -9 -2 -13 5 -8 8 4 9 -1 4 -16 -5 -15
-4 -20 3 -16 7 4 9 -7 6 -33 -2 -22 0 -42 5 -45 5 -3 7 -23 5 -44 -7 -55 6
-69 42 -46 29 18 29 18 14 -1 -8 -11 -30 -35 -47 -54 -18 -19 -33 -40 -33 -47
0 -7 -13 -22 -30 -34 -16 -12 -30 -28 -30 -36 0 -8 -13 -20 -30 -25 -16 -6
-28 -15 -25 -20 3 -4 -3 -14 -15 -21 -25 -16 -26 -30 -2 -26 25 4 44 26 36 40
-5 10 -4 10 6 1 10 -9 18 -5 36 15 13 15 24 21 24 15 0 -7 -4 -13 -10 -13 -5
0 -10 -4 -10 -10 0 -15 24 -2 38 21 8 12 9 18 3 14 -23 -14 -10 13 19 38 l30
27 0 -42 c0 -24 -4 -38 -8 -31 -5 8 -12 2 -21 -18 -7 -16 -16 -27 -21 -24 -9
5 -33 -6 -95 -46 -22 -14 -44 -28 -50 -31 -5 -3 -21 -2 -34 3 l-24 9 21 23
c20 21 20 24 5 55 -9 18 -18 30 -21 28 -3 -3 0 -12 6 -19 9 -10 8 -17 0 -25
-9 -9 -9 -12 1 -12 8 0 5 -10 -8 -29 -13 -18 -18 -36 -14 -47 4 -12 3 -15 -5
-10 -8 5 -10 28 -7 69 16 201 16 205 -8 222 -12 8 -29 15 -39 15 -11 0 -25 17
-38 46 -24 56 -25 64 -5 64 14 0 13 3 -2 25 -15 21 -26 24 -70 23 -29 0 -53
-5 -53 -10 0 -6 6 -8 14 -5 7 3 26 -1 41 -9 30 -15 48 -19 26 -5 -7 5 -9 11
-5 14 5 3 15 -1 22 -9 8 -9 9 -14 2 -14 -6 0 -9 -4 -5 -9 3 -5 1 -12 -5 -16
-6 -4 -7 -11 -4 -17 4 -7 2 -8 -5 -4 -9 6 -9 11 -1 21 8 10 4 13 -16 13 -15 0
-21 -4 -14 -8 8 -5 8 -9 -4 -13 -8 -3 -16 -1 -18 5 -6 16 -28 1 -38 -26 -5
-14 -3 -27 8 -39 24 -28 3 -42 -45 -29 -34 9 -36 11 -16 17 13 4 20 12 17 17
-3 5 -15 3 -28 -5 -16 -11 -27 -12 -40 -5 -14 8 -17 7 -12 -1 5 -7 -1 -11 -14
-11 -12 0 -18 -4 -15 -11 4 -6 13 -8 21 -5 8 3 14 0 14 -6 0 -6 7 -20 17 -30
23 -26 11 -22 -22 6 -16 14 -32 23 -37 20 -4 -3 -8 2 -8 11 0 11 -5 15 -14 12
-8 -3 -34 -11 -58 -17 -71 -20 -120 -49 -173 -105 -27 -29 -65 -60 -83 -70
-19 -9 -32 -19 -29 -22 3 -2 14 0 25 6 12 6 34 11 51 11 16 0 36 7 45 15 15
16 33 4 21 -15 -3 -5 -1 -10 6 -10 7 0 9 -3 6 -7 -4 -3 15 -14 41 -23 71 -25
146 -13 184 29 18 20 28 42 28 62 0 26 3 29 14 20 7 -6 20 -9 29 -5 8 3 18 0
22 -6 3 -6 1 -9 -5 -8 -6 2 -17 -13 -23 -32 -15 -43 -87 -100 -128 -100 -16 0
-70 7 -121 16 -68 12 -97 13 -115 5 -13 -6 -22 -15 -19 -20 11 -17 -65 7 -78
25 -10 13 -22 16 -54 11 -23 -3 -44 -1 -47 4 -11 17 -162 -13 -171 -34 -5 -13
-74 -20 -74 -8 0 17 33 35 61 33 16 -1 29 2 29 8 0 5 11 10 24 10 14 0 27 4
31 10 3 5 12 7 20 3 8 -3 15 0 15 7 0 9 4 9 16 -1 14 -11 20 -10 40 14 23 27
44 29 44 5 0 -6 -3 -8 -7 -5 -7 8 -33 -11 -33 -24 0 -5 5 -9 11 -9 5 0 7 5 3
11 -4 8 3 9 25 4 24 -5 31 -3 31 8 0 8 -7 17 -15 21 -17 6 -20 26 -4 26 6 0
22 9 36 20 14 11 40 20 57 21 18 0 59 17 96 39 36 22 97 56 136 75 61 31 75
34 99 25 32 -12 38 -9 29 14 -3 9 -14 16 -25 16 -10 0 -23 8 -28 18 -6 9 -11
12 -11 5 0 -11 -94 -63 -115 -63 -7 0 -50 -19 -96 -41 -46 -23 -117 -56 -158
-74 -64 -29 -71 -34 -55 -44 16 -9 14 -10 -11 -5 -16 4 -31 8 -32 9 -2 0 14
11 35 24 135 82 197 123 200 131 2 6 8 8 13 5 11 -8 61 19 95 50 15 14 34 25
43 24 11 0 8 -3 -6 -9 -13 -5 -23 -12 -23 -15 0 -10 43 6 62 22 9 8 21 12 27
9 5 -3 16 1 25 9 8 9 17 11 21 6 8 -14 36 -1 28 13 -3 6 3 3 14 -7 13 -11 23
-14 27 -8 4 5 1 13 -6 18 -15 9 -88 11 -82 2 6 -10 -24 -19 -40 -13 -8 3 -17
0 -21 -5 -3 -6 -10 -9 -14 -6 -13 7 -108 -31 -140 -57 -17 -12 -30 -30 -31
-38 -1 -12 -3 -12 -7 -2 -3 8 17 35 48 64 30 27 76 71 103 96 28 27 46 39 42
28 -5 -16 -4 -17 9 -6 8 7 12 16 10 21 -3 4 4 13 15 19 11 6 20 7 20 3 0 -4 6
1 13 11 7 10 20 17 28 16 29 -4 60 0 55 8 -3 4 8 7 25 6 16 -1 29 1 29 4 0 12
54 11 68 -1 10 -8 7 -13 -15 -23 -15 -7 -23 -13 -16 -13 11 -1 10 -51 -2 -71
-3 -5 3 -8 14 -7 16 1 18 5 10 19 -6 12 -6 18 0 18 5 0 8 9 6 20 -5 24 14 38
26 19 12 -20 11 -31 -3 -23 -7 5 -8 3 -3 -5 5 -9 10 -10 18 -2 6 6 18 11 27
10 9 0 10 -2 3 -5 -7 -3 -9 -12 -6 -21 4 -11 2 -14 -5 -9 -7 4 -12 4 -12 1 0
-6 63 -35 75 -35 4 0 3 5 0 10 -3 6 -1 10 5 10 7 0 9 -8 5 -20 -5 -15 -3 -18
10 -14 8 4 15 11 14 18 -1 6 2 21 6 34 6 17 11 20 20 12 10 -8 14 -4 19 15 4
15 13 25 24 24 9 0 12 -3 6 -5 -8 -3 -9 -16 -4 -39 8 -34 -1 -47 -16 -24 -4 7
-12 -1 -21 -19 -10 -21 -20 -29 -31 -25 -13 4 -14 2 -4 -4 10 -8 10 -12 -2
-22 -40 -33 33 -68 85 -41 26 14 24 24 -7 45 -15 9 -23 12 -20 6 4 -6 1 -11
-8 -11 -8 0 -17 -6 -19 -12 -4 -9 -6 -8 -6 2 -1 48 91 89 97 43 2 -13 8 -23
13 -23 12 0 -18 72 -34 82 -9 6 -9 10 0 16 9 6 6 15 -11 37 -23 29 -23 29 -51
11 -15 -10 -30 -27 -32 -37 -3 -10 -10 -19 -15 -19 -5 0 -6 -4 -3 -10 3 -5 2
-10 -2 -10 -5 0 -14 9 -21 20 -7 11 -19 20 -27 20 -8 0 -15 5 -15 10 0 6 5 10
10 10 6 0 9 3 8 8 -4 13 53 114 78 139 23 23 32 53 16 53 -4 0 -30 -36 -57
-80 -33 -52 -55 -78 -64 -75 -61 23 -105 27 -161 15 -33 -7 -58 -15 -56 -19 2
-3 -6 -7 -19 -7 -38 -3 -125 -66 -241 -176 -61 -57 -132 -120 -158 -138 -25
-18 -46 -37 -46 -42 0 -5 -5 -6 -12 -2 -7 4 -8 3 -4 -4 4 -7 2 -12 -4 -12 -7
0 -25 -9 -41 -21 -16 -11 -37 -18 -45 -15 -9 4 -12 2 -8 -5 4 -8 -1 -9 -17 -4
-19 5 -21 4 -9 -5 12 -9 9 -10 -15 -6 -19 4 -25 3 -16 -2 18 -13 -2 -24 -37
-21 -27 3 -99 -28 -89 -38 3 -2 14 0 24 5 10 5 33 10 50 10 40 1 103 22 103
35 0 5 6 7 14 4 8 -3 16 -1 18 4 2 7 12 7 28 0 24 -9 24 -10 3 -10 -12 -1 -25
-6 -28 -11 -4 -6 -11 -8 -16 -5 -5 4 -9 -1 -9 -9 0 -10 -6 -13 -15 -10 -8 4
-15 2 -15 -2 0 -5 -25 -10 -56 -11 -31 -1 -62 -7 -70 -14 -8 -6 -21 -9 -29 -5
-9 3 -15 0 -15 -9 0 -25 44 -85 65 -90 40 -8 155 -11 155 -3 0 4 7 8 16 8 9 0
12 -5 8 -12 -5 -8 2 -9 24 -5 19 4 32 2 32 -3 0 -20 453 -3 513 19 12 5 31 5
42 0 74 -28 244 -69 270 -63 33 6 81 41 71 51 -3 3 -15 -2 -26 -12 -24 -21
-86 -31 -104 -15 -7 5 -16 7 -19 3 -4 -3 -8 5 -8 18 -1 17 -3 19 -6 6 -3 -13
-11 -16 -31 -11 -15 4 -32 11 -38 15 -6 5 -14 6 -17 2 -11 -11 -47 29 -47 52
0 11 -5 26 -11 32 -8 8 -8 13 1 18 6 4 12 5 13 4 2 -2 11 -23 22 -46 l20 -42
19 27 20 27 -21 -18 c-21 -19 -22 -18 -32 20 -6 21 -11 44 -11 51 0 7 -5 23
-11 35 -7 12 -13 36 -14 53 -1 18 -9 44 -18 58 -33 50 -16 61 31 21 24 -20 32
-39 47 -110 10 -47 24 -93 31 -103 18 -23 17 -2 -1 42 -9 21 -11 36 -5 36 16
0 12 27 -5 34 -21 8 -19 23 5 29 11 3 20 1 20 -5 0 -5 4 -7 9 -3 5 3 11 0 14
-7 2 -7 3 -4 1 6 -2 11 2 27 9 35 7 9 8 12 1 8 -6 -3 -21 5 -34 18 -20 21 -22
28 -12 50 14 29 39 42 53 28 7 -7 2 -13 -16 -17 -25 -6 -31 -34 -6 -29 6 2 11
-2 11 -7 0 -6 7 -10 17 -10 14 0 14 2 -2 20 -15 17 -16 20 -3 20 29 0 39 -24
21 -50 -13 -18 -14 -26 -4 -42 11 -18 10 -18 -10 -8 -19 10 -20 10 -11 -6 13
-23 41 -27 37 -5 -1 9 2 19 8 23 18 11 37 -3 37 -29 0 -15 -4 -22 -11 -18 -6
4 -8 13 -5 21 3 8 0 14 -5 14 -7 0 -9 -9 -5 -22 3 -13 6 -29 6 -36 0 -7 5 -10
11 -6 7 4 10 1 7 -7 -3 -8 -13 -13 -23 -11 -17 3 -17 2 -1 -13 9 -9 16 -31 17
-48 2 -55 13 -82 36 -83 15 -1 19 4 16 17 -6 23 15 25 24 3 5 -15 7 -15 15 0
5 9 14 14 19 10 5 -3 16 -1 24 6 10 8 19 8 34 1 28 -16 38 -14 16 3 -19 14
-19 15 -2 34 23 25 57 35 57 17 0 -7 -7 -15 -15 -19 -8 -3 -14 -13 -14 -23 1
-16 2 -16 6 -1 4 16 33 34 33 20 -1 -12 -39 -77 -40 -67 0 13 -80 16 -80 4 0
-5 -7 -9 -15 -9 -8 0 -15 -4 -15 -10 0 -5 4 -10 9 -10 6 0 13 5 16 10 8 13 65
13 85 0 12 -7 9 -13 -13 -30 -15 -12 -27 -27 -26 -33 3 -27 -2 -39 -15 -34 -7
3 -27 -3 -45 -14 -17 -10 -31 -16 -31 -13 0 4 -7 1 -16 -7 -8 -7 -25 -14 -37
-15 -12 -2 -44 -8 -72 -14 -27 -6 -87 -13 -133 -17 -83 -6 -127 4 -237 52 -16
7 -43 15 -60 18 -16 4 -24 4 -17 1 6 -3 12 -10 12 -15 0 -5 -13 -3 -28 5 -15
8 -61 17 -102 21 -50 5 -84 13 -103 27 -25 17 -44 20 -138 19 -98 -2 -108 0
-102 15 4 11 2 15 -4 11 -6 -4 -24 0 -39 8 -16 8 -36 15 -44 15 -13 0 1 -11
71 -55 9 -5 27 -18 40 -27 13 -9 71 -24 129 -33 58 -9 203 -41 323 -71 120
-30 241 -54 268 -54 l49 0 1 -35 c1 -19 3 -39 4 -45 1 -5 3 -19 4 -30 1 -25
21 -27 22 -2 0 12 3 10 12 -8 6 -14 17 -29 24 -33 8 -5 11 -13 7 -18 -4 -6
-16 -1 -30 12 -23 21 -25 22 -37 5 -12 -16 -34 -18 -213 -20 -243 -2 -295 5
-382 46 -57 28 -79 32 -148 33 -80 1 -81 1 -140 47 -32 25 -70 58 -83 72 -14
14 -35 26 -48 26 -20 0 -30 -13 -62 -82 -55 -119 -113 -278 -107 -294 3 -8 0
-13 -6 -11 -6 1 -17 -18 -26 -42 -12 -36 -12 -53 -3 -95 16 -74 97 -205 141
-228 19 -11 45 -30 57 -43 13 -15 28 -22 37 -19 9 3 16 2 16 -4 0 -6 -6 -12
-12 -14 -34 -12 97 -40 208 -45 107 -5 128 -3 188 17 77 25 65 27 306 -45 41
-13 103 -31 138 -41 34 -10 62 -23 62 -28 0 -6 -18 -28 -39 -49 -22 -22 -47
-61 -58 -92 -19 -50 -19 -55 -4 -68 22 -20 95 -56 156 -78 27 -10 43 -18 34
-18 -21 -1 -96 -67 -104 -91 -4 -11 -9 -18 -13 -16 -4 2 -8 -8 -9 -22 0 -15
-4 -39 -8 -54 -7 -28 -7 -28 42 -28 60 0 112 16 135 43 9 10 21 16 26 13 4 -3
15 5 23 16 17 26 48 54 54 50 3 -1 32 11 65 28 38 19 75 30 102 30 59 0 159
-38 243 -92 137 -89 257 -135 320 -123 24 5 27 4 15 -5 -12 -10 -12 -11 5 -5
11 4 45 9 75 11 111 6 176 16 228 35 73 26 146 64 162 84 8 10 -3 6 -24 -9
-35 -24 -56 -32 -56 -22 0 2 24 19 53 39 50 33 129 117 110 117 -4 0 -3 4 3 8
5 4 18 18 27 31 13 20 14 28 4 40 -9 12 -9 13 1 7 6 -4 12 -6 13 -4 0 2 3 23
6 48 3 25 9 54 14 65 7 17 8 16 8 -8 1 -45 -29 -164 -45 -177 -7 -7 -11 -16
-8 -21 7 -12 -53 -93 -113 -150 -59 -57 -111 -90 -183 -115 -30 -10 -57 -22
-58 -27 -6 -13 -75 -44 -132 -58 -75 -19 -448 -15 -730 6 -108 9 -186 16 -230
21 -25 3 -58 6 -73 8 -37 4 -55 22 -39 38 7 7 12 17 12 22 0 6 -12 -2 -26 -19
-14 -16 -22 -24 -18 -16 4 9 3 12 -4 8 -18 -12 -42 4 -42 28 0 13 5 27 10 30
6 3 7 17 4 31 -3 13 -2 30 3 37 12 15 24 47 18 47 -3 0 -16 -18 -30 -40 -31
-48 -36 -112 -11 -139 38 -41 170 -65 426 -76 80 -3 222 -10 315 -16 94 -6
235 -7 314 -3 l144 7 101 48 c211 103 290 172 367 323 46 89 60 284 31 411
-37 157 -78 305 -97 350 -7 17 -18 50 -25 75 -6 25 -20 61 -30 80 -10 19 -30
63 -44 98 -36 88 -87 163 -138 205 -25 21 -49 37 -53 37 -4 0 -23 14 -42 30
-18 17 -41 30 -49 30 -18 0 -71 39 -118 86 -20 20 -47 35 -72 40 -21 4 -59 17
-84 30 -38 20 -47 22 -58 10 -12 -12 -11 -17 7 -35 12 -12 26 -21 32 -21 6 0
1 8 -11 18 -20 16 -21 19 -7 25 10 4 16 2 14 -6 -1 -6 8 -13 21 -15 13 -2 19
-8 16 -14 -5 -7 2 -9 20 -4 14 3 26 2 26 -3 0 -5 14 -12 30 -16 17 -4 30 -11
30 -16 0 -8 -41 4 -65 19 -6 4 -3 0 7 -10 13 -12 15 -18 6 -21 -10 -4 -10 -6
0 -6 6 -1 12 -8 12 -17 0 -14 -2 -14 -22 0 -12 9 -32 16 -43 16 -15 -1 -12 -4
11 -14 18 -8 35 -19 38 -25 4 -6 12 -11 17 -11 6 0 7 5 4 10 -3 6 0 10 9 10 8
0 16 -6 19 -12 3 -7 4 -3 4 8 -1 15 -6 20 -16 16 -9 -3 -12 -1 -8 5 4 6 2 13
-4 15 -7 2 5 4 25 5 20 1 36 -3 36 -8 0 -5 -4 -9 -10 -9 -5 0 -10 -4 -10 -10
0 -5 6 -10 14 -10 8 0 17 -20 24 -52 7 -34 10 -39 7 -15 -5 47 2 67 21 60 8
-3 12 -9 9 -13 -5 -7 54 -50 68 -50 4 0 4 8 1 18 -5 15 -4 15 10 -2 8 -10 13
-23 10 -28 -3 -5 0 -7 8 -6 7 2 14 -7 16 -19 2 -12 11 -27 20 -35 13 -11 14
-11 7 2 -5 8 -11 24 -12 35 -2 15 1 14 12 -7 9 -16 21 -25 29 -22 20 8 28 -25
11 -42 -17 -18 -20 -40 -5 -49 13 -8 13 -25 1 -25 -5 0 -13 9 -16 20 -3 11
-11 20 -16 20 -5 0 -5 -7 1 -17 5 -10 16 -34 24 -54 11 -29 11 -36 0 -36 -7 0
-10 5 -7 11 3 7 1 6 -7 -1 -17 -16 -4 -33 21 -28 14 3 19 0 16 -9 -3 -7 -1
-19 4 -27 7 -12 9 -12 9 0 0 11 3 11 17 0 14 -11 13 -8 -3 16 -33 50 -46 87
-34 99 7 7 10 4 10 -9 0 -10 13 -39 30 -65 16 -25 31 -57 32 -71 2 -13 11 -30
21 -38 17 -12 17 -14 2 -31 -17 -19 -13 -40 7 -40 6 0 5 7 -3 18 -13 15 -12
16 4 3 11 -9 15 -21 11 -34 -4 -13 -2 -17 5 -13 10 6 15 -6 12 -26 0 -5 3 -8
8 -8 5 0 11 -9 14 -20 3 -13 0 -20 -9 -20 -8 0 -14 -4 -14 -10 0 -13 13 -13
27 1 20 20 43 2 43 -34 0 -18 -4 -37 -9 -43 -18 -19 -21 -62 -6 -68 8 -3 15
-1 15 4 0 20 18 9 24 -15 4 -14 11 -25 16 -25 12 0 -7 52 -23 62 -9 6 -9 8 1
8 7 0 20 -17 29 -37 16 -41 13 -116 -7 -154 -18 -32 -21 -17 -5 26 17 47 19
89 5 80 -5 -3 -10 -2 -10 4 0 6 -7 8 -15 5 -8 -3 -13 -11 -12 -17 1 -6 -11
-12 -28 -12 -38 -1 -58 -43 -33 -69 14 -14 17 -14 22 0 3 8 2 13 -3 10 -5 -4
-7 3 -4 14 7 27 25 37 23 14 -1 -11 -2 -28 -1 -39 1 -16 3 -17 10 -5 6 8 7 18
5 22 -3 4 0 8 6 8 7 0 10 6 7 13 -6 16 12 49 23 42 12 -8 -7 -69 -41 -126 -29
-50 -35 -69 -21 -69 14 0 30 16 50 49 18 29 52 52 52 34 0 -22 -39 -74 -78
-105 -26 -21 -60 -50 -76 -65 -16 -15 -37 -28 -45 -29 -9 -1 -22 -3 -29 -5 -8
-3 -20 15 -31 46 -22 60 -62 138 -68 132 -2 -3 12 -38 31 -78 19 -41 40 -89
47 -107 8 -21 15 -29 23 -24 6 5 20 12 31 16 16 5 16 3 -5 -15 -23 -19 -23
-19 -2 -9 12 6 27 8 32 5 5 -3 24 8 42 24 18 17 28 31 22 31 -7 0 -14 -6 -17
-14 -3 -8 -16 -20 -27 -26 -18 -10 -21 -9 -18 5 1 9 7 17 13 18 5 1 20 12 34
25 26 24 47 30 35 10 -5 -9 -3 -9 9 1 9 7 15 17 12 21 -7 11 30 41 39 33 4 -5
6 -3 4 2 -5 16 59 78 73 69 8 -4 9 -3 5 4 -4 7 -4 17 0 23 8 13 28 -41 38
-100 4 -26 2 -42 -6 -47 -7 -5 -9 -2 -5 8 9 24 -13 98 -29 98 -8 0 -20 -12
-26 -26 -10 -20 -9 -27 2 -34 8 -5 17 -7 19 -4 3 3 -1 9 -9 14 -8 5 -11 12 -7
16 10 10 19 -1 23 -28 1 -13 6 -38 10 -55 4 -23 3 -33 -6 -33 -7 0 -10 8 -8
18 3 10 0 22 -6 28 -6 6 -17 20 -25 31 -13 19 -15 19 -32 5 -11 -9 -19 -25
-19 -35 0 -10 -4 -16 -8 -13 -11 7 -9 -48 3 -56 5 -4 6 -11 1 -15 -4 -4 -14 1
-22 11 -13 19 -14 19 -14 1 0 -26 -38 -78 -66 -92 -20 -9 -23 -8 -26 11 -3 15
-5 12 -9 -12 -4 -25 -2 -32 8 -28 21 8 15 -3 -14 -29 -16 -13 -52 -34 -80 -46
-41 -18 -50 -25 -42 -36 13 -15 39 -18 39 -3 0 5 -8 7 -17 4 -10 -3 -1 4 21
16 21 12 50 24 65 26 14 3 31 10 36 16 7 8 6 9 -5 3 -8 -4 -5 2 8 14 12 12 22
28 22 36 0 8 5 14 11 13 6 -2 22 19 36 45 31 58 43 56 13 -3 -12 -23 -17 -39
-11 -35 23 14 54 92 56 138 2 50 19 73 39 55 7 -6 11 -49 10 -107 0 -98 -10
-131 -46 -162 -10 -9 -18 -21 -18 -28 0 -6 -4 -11 -10 -11 -5 0 -23 -13 -38
-30 -24 -25 -82 -57 -109 -61 -5 -1 -17 -8 -28 -15 -11 -8 -27 -14 -36 -14 -9
0 -19 -6 -22 -14 -4 -10 11 -8 59 9 35 12 64 19 64 14 0 -14 -236 -76 -248
-65 -2 3 14 10 37 16 40 10 57 30 26 30 -8 0 -15 -3 -15 -7 0 -5 -15 -9 -32
-10 -18 -1 -46 -4 -63 -7 -16 -2 -47 -5 -68 -5 -22 -1 -36 -5 -32 -11 3 -5 -7
-3 -21 5 -19 9 -33 11 -45 4 -23 -12 -39 -12 -20 0 11 7 7 13 -20 24 -34 14
-63 12 -38 -4 7 -4 16 -6 20 -3 4 2 10 0 14 -6 12 -20 -34 -9 -49 11 -8 12
-20 19 -28 16 -15 -5 -68 23 -68 36 0 4 5 5 10 2 6 -3 10 -4 10 -1 0 3 -18 15
-40 26 -22 11 -40 25 -40 30 0 6 -9 10 -19 10 -11 0 -23 4 -26 10 -3 6 1 7 9
4 37 -14 12 6 -40 32 -62 31 -71 41 -55 57 9 9 14 8 22 -3 8 -11 12 -12 16 -2
8 19 30 14 51 -13 23 -29 37 -33 28 -7 -4 9 4 4 18 -13 26 -32 27 -46 1 -25
-20 16 -32 5 -14 -13 8 -7 16 -14 19 -15 24 -5 40 -17 40 -29 0 -9 6 -13 15
-9 9 3 15 0 15 -10 0 -8 6 -14 13 -13 27 3 38 -1 31 -14 -5 -9 -4 -9 6 0 11
10 16 9 27 -5 10 -12 12 -12 8 -2 -4 8 0 7 9 -4 10 -13 24 -17 45 -14 23 3 28
2 20 -8 -7 -8 -6 -14 2 -20 7 -4 9 -3 6 3 -10 16 16 23 60 17 26 -4 33 -2 23
4 -8 5 -37 12 -65 16 -58 8 -151 38 -168 55 -8 8 -8 11 2 11 7 0 9 5 5 11 -4
7 -1 10 7 7 8 -3 13 -12 11 -22 -2 -9 2 -16 8 -16 5 0 9 5 8 12 -2 7 7 13 19
14 14 1 20 -3 16 -12 -3 -8 -10 -11 -17 -7 -6 3 -5 0 2 -8 11 -12 14 -12 22 1
5 8 11 20 13 25 5 13 47 -24 47 -42 0 -7 4 -13 10 -13 5 0 7 6 4 13 -7 19 97
10 112 -9 13 -16 34 -19 34 -5 0 5 -5 11 -12 13 -7 3 -6 7 5 11 10 4 17 2 17
-5 0 -6 6 -6 16 3 18 15 44 20 57 12 5 -3 -3 -12 -19 -20 -16 -7 -21 -11 -11
-8 10 3 27 5 38 5 17 0 18 3 9 20 -8 14 -8 20 0 20 6 0 8 5 4 12 -4 6 -3 8 4
5 5 -4 8 -17 4 -29 -4 -17 -2 -20 12 -15 10 4 22 7 28 7 6 0 8 11 4 25 -6 23
-2 28 30 41 20 8 34 18 30 21 -5 5 -40 -9 -111 -44 -16 -8 -46 -17 -65 -20
-19 -2 -39 -8 -45 -14 -5 -5 -16 -9 -25 -9 -13 0 -13 1 0 10 10 6 3 8 -23 3
-23 -3 -53 0 -80 10 -23 9 -64 18 -92 21 -53 5 -131 30 -153 49 -19 15 -50 80
-45 94 2 6 -5 17 -16 25 -15 11 -18 23 -16 58 1 25 7 56 13 70 l11 25 2 -30
c1 -16 2 -40 2 -52 1 -13 7 -23 14 -23 7 0 13 -4 13 -10 0 -5 16 -10 36 -10
20 0 54 -5 75 -11 56 -17 178 3 202 32 12 15 14 24 7 29 -8 5 -7 11 3 21 15
15 19 52 5 43 -4 -3 -8 1 -8 8 0 10 -2 10 -9 -1 -8 -12 -14 -12 -42 -1 l-32
14 29 23 c19 15 24 23 14 23 -9 0 -21 -5 -26 -10 -8 -8 -15 -6 -24 5 -7 9 -8
15 -2 15 6 0 13 -6 15 -12 3 -8 6 -6 6 5 1 11 -6 17 -22 17 -17 0 -26 10 -38
44 l-15 43 30 1 c30 1 30 0 11 -14 -19 -15 -18 -15 17 -10 20 3 40 1 43 -4 3
-6 -1 -10 -9 -10 -9 0 -16 -4 -16 -10 0 -12 17 -12 45 0 12 5 14 9 6 9 -11 1
-10 5 5 17 19 15 18 15 -3 11 -13 -3 -23 -1 -23 4 0 5 -7 9 -16 9 -8 0 -13 3
-11 8 3 4 -17 7 -43 7 -43 0 -49 -3 -53 -23 -3 -14 1 -26 9 -29 8 -3 12 -9 9
-13 -3 -5 -1 -11 4 -15 18 -10 0 -36 -21 -29 -10 3 -26 0 -35 -8 -9 -7 -28
-13 -43 -14 -14 -1 -37 -5 -49 -9 -15 -5 -21 -4 -17 3 6 10 72 34 128 46 35 8
28 35 -7 28 -14 -2 -22 -9 -18 -15 4 -6 0 -8 -10 -4 -10 4 -17 2 -17 -4 0 -6
-9 -9 -20 -6 -11 3 -18 1 -14 -4 3 -5 -1 -9 -8 -9 -23 0 -118 -107 -119 -135
-1 -14 -3 -29 -4 -35 -1 -5 -3 -17 -4 -26 -1 -11 -7 -15 -22 -11 -13 3 -19 1
-16 -6 2 -7 11 -11 19 -9 8 1 20 -8 27 -20 6 -13 9 -15 7 -6 -9 30 1 20 23
-24 24 -48 21 -58 -7 -30 -30 30 -72 56 -79 49 -3 -3 -13 1 -21 10 -10 10 -17
12 -20 5 -2 -6 -10 -8 -18 -5 -8 3 -14 0 -14 -6 0 -9 33 -15 78 -14 6 1 12 -3
12 -8 0 -5 7 -9 16 -9 8 0 13 -4 10 -8 -3 -5 -19 -7 -36 -4 -18 2 -30 0 -30
-7 0 -17 -31 -13 -65 7 -27 17 -32 17 -52 4 -13 -8 -23 -10 -23 -6 0 5 -4 4
-8 -1 -11 -16 -69 -55 -81 -55 -8 0 -8 6 1 19 6 10 16 18 22 17 6 -2 7 -1 2 2
-12 6 65 41 79 36 6 -3 12 7 13 21 1 17 -3 25 -14 25 -13 0 -14 -3 -4 -14 9
-12 5 -16 -24 -22 -20 -3 -36 -10 -36 -14 0 -5 -16 -14 -35 -20 -19 -6 -35
-16 -35 -22 0 -6 7 -7 16 -4 13 5 14 4 6 -7 -7 -8 -9 -17 -5 -20 3 -4 1 -7 -5
-7 -6 0 -16 -15 -21 -32 -7 -26 -9 -28 -10 -10 -1 12 -5 22 -11 22 -6 0 -6 -9
0 -26 10 -25 9 -26 -15 -22 -18 4 -30 0 -38 -13 -7 -10 -26 -23 -41 -29 -15
-5 -47 -24 -71 -40 -24 -17 -53 -30 -65 -30 -19 0 -20 1 -5 24 24 37 120 106
157 113 40 8 94 39 102 58 8 22 -21 19 -51 -5 -14 -11 -33 -20 -41 -20 -23 0
-82 -23 -82 -32 0 -4 -5 -8 -11 -8 -7 0 -22 -11 -35 -26 -32 -34 -30 -21 4 27
30 43 110 84 149 76 13 -2 26 0 29 4 3 5 -5 9 -18 10 -22 0 -22 1 -3 9 28 12
37 12 30 0 -3 -6 -2 -10 4 -10 15 0 23 18 10 26 -6 3 -35 -2 -64 -11 -50 -17
-55 -17 -88 -2 -19 9 -42 17 -50 17 -8 0 -17 7 -21 15 -3 8 -17 15 -31 15 -14
0 -28 7 -31 15 -4 8 -12 15 -20 15 -17 0 -8 27 19 58 25 27 35 28 64 1 16 -16
26 -19 35 -12 7 6 27 13 43 17 26 6 28 5 13 -7 -13 -10 -15 -16 -6 -25 7 -7
17 -12 23 -12 5 0 3 5 -5 10 -13 9 -13 11 0 20 21 13 30 12 30 -4 0 -7 7 -19
16 -26 13 -11 16 -10 20 8 4 12 12 18 19 16 7 -3 16 0 20 5 3 6 11 9 16 6 5
-4 9 -1 9 4 0 6 -4 11 -10 11 -5 0 -10 4 -10 10 0 5 8 7 18 4 14 -5 14 -4 2 4
-12 9 -12 13 3 30 23 25 21 35 -3 27 -21 -7 -25 12 -5 28 6 4 3 7 -7 5 -9 -2
-17 1 -17 6 -1 5 15 10 34 11 20 1 41 7 46 12 30 30 69 -22 69 -93 0 -19 4
-34 8 -34 11 0 -3 102 -18 129 -8 15 -17 20 -28 16 -13 -5 -14 -3 -6 5 9 9 17
9 34 0 18 -10 21 -9 15 1 -6 9 -2 11 13 7 12 -4 20 -2 16 3 -3 5 -13 9 -22 9
-14 1 -13 4 7 20 13 11 29 20 37 20 8 0 14 5 14 11 0 5 5 7 10 4 6 -4 37 12
70 34 33 23 65 41 70 41 6 0 9 4 6 9 -6 10 58 71 74 71 6 0 10 4 10 10 0 5 -7
7 -15 4 -8 -4 -15 -2 -15 4 0 6 6 12 12 14 7 3 2 7 -10 10 -12 4 -20 2 -16 -3
3 -5 2 -9 -3 -9 -4 0 -44 -35 -88 -77 -72 -69 -81 -86 -13 -24 15 13 30 22 34
19 3 -4 -20 -27 -52 -52 -32 -25 -60 -43 -63 -41 -2 3 -15 -2 -28 -10 -13 -9
-29 -13 -35 -9 -6 4 -8 3 -5 -3 9 -15 -19 -36 -35 -27 -7 4 -10 4 -6 -1 9 -9
-53 -52 -89 -61 -21 -6 -24 -4 -18 7 7 12 6 12 -7 1 -9 -7 -27 -10 -40 -7 -17
4 -29 1 -39 -11 -13 -16 -12 -16 9 -5 13 7 26 10 30 7 9 -10 -3 -16 -40 -22
-30 -5 -35 -3 -46 21 -9 20 -17 25 -32 20 -10 -3 -34 2 -52 11 -18 10 -40 19
-48 20 -8 1 -55 14 -105 29 -85 25 -104 30 -190 55 -91 26 -103 27 -141 14
-21 -7 -42 -10 -47 -7 -6 3 -7 1 -4 -4 5 -7 -15 -14 -54 -18 -47 -6 -63 -4
-70 6 -7 11 -9 11 -9 1 0 -10 -16 -12 -72 -7 -40 3 -84 8 -98 11 -22 5 -23 7
-7 15 10 6 32 7 49 4 21 -5 28 -4 24 4 -4 6 -30 11 -57 11 -28 0 -60 6 -72 12
-21 12 -19 13 23 19 l45 6 -55 2 c-55 1 -91 14 -78 27 4 3 22 1 39 -5 18 -6
48 -8 66 -5 26 5 33 3 33 -10 0 -9 1 -16 3 -16 1 0 17 -4 35 -9 20 -6 30 -6
27 0 -4 5 1 9 9 9 20 0 16 40 -4 41 -8 0 -53 2 -100 4 -89 3 -107 5 -128 18
-8 5 -12 2 -12 -9 0 -16 -14 -12 -16 4 -1 8 -13 40 -25 67 -5 11 -11 36 -14
55 -4 19 -10 39 -14 43 -10 10 2 -74 14 -93 8 -13 6 -13 -8 -1 -10 7 -20 32
-24 54 -5 33 -8 37 -14 22 -5 -13 -7 2 -6 40 0 33 -2 65 -6 71 -9 15 15 64 31
64 7 0 11 4 7 9 -3 5 -1 12 5 16 5 3 10 16 10 28 0 13 6 31 14 42 7 11 14 40
14 64 1 24 6 47 12 51 6 4 10 11 9 16 -1 5 3 22 9 37 7 16 12 33 12 38 0 6 5
7 10 4 6 -3 10 2 10 12 0 11 7 28 15 39 14 19 14 19 15 -1 0 -11 -8 -31 -17
-45 -12 -17 -13 -25 -5 -28 7 -2 12 -16 11 -30 -1 -26 -1 -26 -8 -3 -4 16 -15
-21 -34 -120 -15 -79 -27 -152 -27 -161 0 -10 -8 -33 -17 -53 -18 -38 -15 -49
12 -38 18 6 18 7 1 13 -17 6 -17 7 -1 23 9 10 22 14 28 10 8 -4 8 -2 -1 9 -10
12 -9 22 3 51 8 20 13 51 10 69 -4 27 -3 29 4 8 4 -14 6 -52 3 -84 -4 -43 -2
-57 6 -52 7 4 12 3 12 -3 0 -5 -5 -11 -12 -13 -8 -3 -9 -15 -1 -46 10 -37 9
-42 -8 -47 -10 -4 -16 -12 -13 -20 3 -8 -1 -22 -11 -31 -9 -9 -13 -19 -10 -22
3 -4 9 -2 13 3 28 39 160 72 177 44 4 -6 14 -8 22 -5 8 3 23 2 32 -4 10 -5 37
-11 60 -12 22 -2 41 -7 41 -11 0 -7 39 0 49 9 2 2 -8 15 -22 28 -18 17 -25 31
-20 42 5 14 2 16 -21 10 -15 -4 -32 -4 -38 0 -6 4 -31 7 -56 8 -32 1 -47 -3
-50 -14 -5 -13 -3 -13 11 -1 19 15 22 8 7 -19 -9 -17 -14 -18 -35 -8 -26 12
-33 28 -12 28 8 0 7 3 -3 10 -8 5 -11 12 -7 17 12 11 127 20 127 10 0 -5 7 -6
16 -3 8 3 13 2 10 -3 -9 -14 104 -23 120 -10 8 7 18 9 22 5 8 -9 -39 -46 -50
-40 -4 3 -8 0 -8 -5 0 -6 6 -11 13 -11 8 0 7 -4 -3 -10 -19 -12 -13 -12 29 0
48 14 74 4 96 -36 10 -19 22 -34 27 -34 5 0 1 11 -8 25 -9 14 -13 29 -10 33
11 10 58 -48 52 -64 -3 -7 -1 -16 4 -19 6 -4 10 3 10 14 0 25 15 28 24 4 9
-22 -14 -34 -73 -38 -25 -1 -56 -5 -68 -8 -17 -5 -21 -2 -16 11 6 14 4 15 -8
5 -18 -14 -82 -10 -87 7 -3 8 0 10 7 6 7 -5 11 1 11 14 0 17 -4 20 -21 15 -11
-4 -36 1 -57 11 -56 26 -212 37 -212 14 0 -4 28 -5 63 -3 50 4 65 2 76 -11 7
-9 19 -16 25 -16 6 0 4 5 -4 10 -13 8 -13 10 1 10 23 0 43 -26 35 -46 -6 -16
-8 -16 -24 0 -10 9 -30 16 -44 16 -14 0 -31 7 -38 15 -11 14 -14 13 -25 -1
-11 -16 -12 -16 -18 0 -4 10 -12 14 -17 11 -21 -13 12 -35 54 -36 22 0 50 -4
61 -9 12 -6 -17 -7 -77 -4 -66 4 -98 2 -98 -5 0 -7 37 -11 103 -12 56 0 111
-3 122 -5 11 -2 83 -6 160 -8 l140 -4 200 -68 c197 -67 202 -68 305 -69 l105
0 105 53 c137 68 167 87 215 133 22 21 50 47 63 58 13 11 23 22 22 26 -1 4 1
9 4 13 3 3 6 1 6 -4 0 -19 48 -64 69 -64 11 0 21 -4 21 -10 0 -5 6 -10 14 -10
7 0 26 -6 41 -14 25 -13 32 -13 56 0 32 16 39 17 39 7 0 -5 -18 -16 -40 -26
-47 -22 -50 -32 -14 -41 19 -5 30 -2 40 11 7 10 14 14 14 9 0 -5 6 -3 14 3 16
13 49 4 40 -11 -4 -6 -9 -5 -14 2 -6 10 -16 7 -38 -11 -17 -13 -31 -28 -31
-33 -1 -8 28 -3 65 11 11 4 15 3 10 -5 -3 -6 -2 -13 4 -17 6 -4 8 -11 5 -16
-9 -13 2 -11 34 6 16 8 31 11 35 8 3 -4 6 -1 6 5 0 12 -31 32 -49 32 -6 0 -11
-4 -11 -10 0 -5 6 -7 14 -4 8 3 17 1 21 -5 3 -7 0 -8 -9 -5 -10 4 -16 1 -16
-7 -1 -10 -5 -8 -15 5 -11 14 -12 24 -3 39 8 16 7 23 -6 32 -8 7 -12 16 -8 21
4 4 -1 2 -10 -5 -15 -11 -19 -11 -24 3 -3 9 -3 23 0 32 3 9 2 12 -5 9 -5 -4
-16 -2 -22 4 -14 11 -65 -10 -79 -32 -6 -9 -8 -9 -8 0 0 6 -10 13 -22 15 -13
2 -22 9 -21 15 2 7 -4 10 -12 7 -16 -7 -75 31 -75 48 0 6 10 3 21 -8 15 -13
21 -15 17 -4 -2 8 -19 20 -37 27 -18 8 -30 9 -26 3 3 -5 1 -10 -4 -10 -6 0
-11 11 -11 25 0 13 -8 29 -17 34 -16 9 -16 10 4 11 12 0 27 -8 32 -19 6 -10
26 -22 45 -25 19 -4 36 -12 38 -18 3 -7 12 -4 26 8 13 10 27 20 32 20 6 1 16
2 24 3 15 1 16 44 3 58 -12 12 -7 23 11 23 18 0 48 53 38 69 -4 5 -1 13 5 17
8 4 9 3 5 -4 -4 -7 -1 -12 9 -12 11 0 15 5 12 14 -3 8 1 20 8 26 8 7 13 16 10
20 -3 5 2 15 10 23 8 9 15 20 15 26 0 6 4 11 8 11 8 0 8 23 0 75 -2 11 -7 23
-13 27 -5 4 -6 10 -2 14 3 4 14 1 22 -6 13 -10 13 -15 3 -21 -7 -4 -9 -11 -6
-14 11 -11 29 6 26 23 -2 9 5 25 14 34 10 10 15 24 11 34 -4 12 -3 15 5 10 8
-5 11 0 9 16 -1 17 4 24 20 26 12 2 27 11 35 20 12 15 11 16 -5 3 -14 -11 -21
-11 -29 -3 -9 9 -8 12 5 12 9 0 17 4 17 8 0 5 -7 9 -15 9 -14 0 -19 -11 -16
-31 1 -5 -7 -6 -18 -3 -11 3 -22 0 -23 -5 -2 -6 -12 -3 -22 7 -13 13 -20 15
-29 6 -8 -8 -7 -11 5 -11 22 0 65 -36 55 -46 -4 -5 -12 -2 -17 6 -7 11 -14 12
-27 4 -9 -6 -18 -16 -19 -22 -1 -7 0 -9 2 -4 3 5 16 7 29 4 32 -6 35 -42 4
-42 -13 0 -18 4 -13 12 4 6 3 8 -2 5 -17 -10 -37 10 -40 39 -2 21 -1 25 6 14
5 -8 13 -11 17 -6 9 9 -35 48 -47 41 -5 -3 -11 -1 -15 4 -10 17 -32 1 -46 -31
-10 -25 -10 -31 2 -39 13 -8 12 -10 -10 -13 -5 0 -13 -5 -18 -10 -5 -5 -2 -6
6 -1 11 6 13 3 8 -14 -4 -17 -2 -21 9 -17 17 7 18 -6 2 -23 -11 -11 -9 -12 7
-8 23 7 79 -36 73 -55 -3 -7 -12 -3 -25 11 -12 13 -37 24 -59 27 -22 3 -41 9
-42 14 -2 6 -8 8 -12 5 -5 -3 -7 -12 -4 -19 3 -8 1 -17 -5 -21 -6 -3 -11 -17
-11 -30 0 -26 -16 -42 -22 -23 -3 8 -9 4 -17 -10 -9 -17 -9 -27 -1 -37 6 -7 8
-28 5 -45 -5 -31 -4 -32 12 -20 17 13 17 13 2 -3 -26 -29 -47 -12 -39 31 3 20
1 45 -4 54 -8 13 -6 21 8 31 18 13 18 14 1 21 -20 7 -38 -11 -30 -31 2 -7 -2
-13 -10 -13 -16 0 -30 -18 -20 -28 3 -3 9 -1 13 5 13 21 30 -1 25 -33 -4 -23
-13 -35 -36 -45 -35 -16 -97 -91 -97 -117 1 -14 3 -14 13 3 12 20 12 20 36 -2
13 -13 19 -23 12 -23 -16 0 -50 -40 -51 -60 0 -8 -12 -24 -27 -37 l-28 -23 33
16 c31 15 57 46 47 56 -3 3 4 13 14 23 19 17 20 16 27 -10 5 -22 0 -33 -32
-66 -21 -22 -44 -37 -52 -34 -7 2 -11 1 -7 -4 3 -5 -15 -23 -40 -40 -54 -37
-60 -25 -8 18 21 17 32 31 26 31 -12 0 -78 -63 -92 -88 -5 -8 -17 -16 -28 -17
-10 0 -30 -9 -43 -18 -30 -21 -41 -22 -33 -2 3 9 10 14 17 12 11 -4 41 21 41
34 0 4 3 11 8 15 4 4 7 2 7 -5 0 -7 5 -9 10 -6 6 4 8 11 5 16 -4 5 1 9 9 9 9
0 16 4 16 8 0 5 18 28 40 51 39 41 57 77 25 51 -23 -19 -18 -3 9 33 14 18 30
54 37 80 7 28 23 59 37 73 15 13 23 27 18 31 -4 4 -11 1 -15 -6 -15 -24 -33
-3 -19 22 6 12 11 23 10 25 -1 1 0 2 3 2 27 0 28 -2 13 -14 -15 -11 -14 -13
12 -13 34 0 47 25 31 56 -11 20 -51 19 -51 -3 0 -7 -3 -6 -9 2 -6 10 -13 11
-34 1 -18 -8 -24 -16 -17 -23 18 -23 -20 -145 -66 -212 -50 -71 -59 -95 -15
-41 15 20 31 34 34 31 2 -3 11 9 18 25 8 17 17 31 21 31 5 0 8 11 8 24 0 14 5
28 10 31 6 4 8 10 6 14 -7 10 12 37 20 29 4 -4 -1 -19 -10 -32 -9 -14 -16 -33
-16 -42 0 -9 -14 -40 -30 -69 -17 -30 -30 -57 -29 -62 4 -20 -2 -33 -15 -33
-8 0 -47 -31 -87 -68 -41 -37 -100 -85 -133 -106 -52 -35 -62 -38 -104 -32
-25 3 -51 11 -57 16 -7 6 -27 12 -44 13 -17 1 -31 5 -31 9 0 4 -17 10 -37 14
-21 3 -83 23 -138 44 -135 51 -150 56 -139 39 6 -11 5 -11 -9 0 -16 13 -16 15
2 27 19 14 50 9 63 -10 4 -6 11 -6 20 2 9 7 18 8 24 3 5 -5 29 -13 54 -19 96
-21 177 -45 225 -67 28 -13 64 -27 80 -31 17 -4 33 -12 37 -18 5 -7 8 -4 8 6
0 11 5 15 15 12 8 -4 15 -2 15 3 0 6 18 18 40 28 22 10 60 41 83 69 68 80 66
87 -4 15 -74 -77 -124 -103 -144 -75 -8 11 -15 13 -20 7 -3 -6 -1 -11 6 -11
21 0 -1 -14 -27 -18 -15 -1 -23 1 -20 7 3 5 1 11 -6 13 -20 7 -18 42 4 65 22
23 17 46 -8 36 -13 -5 -13 -8 -2 -15 8 -6 2 -7 -19 -3 -18 4 -34 2 -38 -5 -3
-5 -11 -8 -16 -4 -5 3 -7 10 -4 15 7 10 -5 12 -46 9 -21 -1 -26 3 -25 22 1 15
-6 24 -19 26 -20 4 -20 3 -1 -11 14 -10 16 -16 7 -21 -6 -4 -19 -2 -28 6 -12
9 -15 9 -9 0 4 -6 2 -12 -3 -12 -6 0 -11 8 -12 18 0 10 -3 12 -6 5 -2 -7 -14
-13 -24 -13 -14 0 -18 4 -13 13 6 9 5 9 -8 0 -8 -7 -18 -10 -21 -6 -4 3 -7 0
-7 -8 0 -11 11 -15 38 -15 58 1 125 -13 134 -26 6 -10 8 -10 8 0 0 10 7 9 29
-4 17 -10 28 -21 25 -26 -3 -4 -1 -8 4 -8 6 0 13 7 16 16 4 10 2 13 -6 8 -7
-4 -8 -3 -4 4 4 6 13 9 22 5 13 -5 13 -8 0 -28 -13 -20 -13 -24 2 -39 16 -16
15 -16 -18 -2 -27 11 -34 19 -32 37 3 19 0 21 -24 16 -17 -3 -33 1 -41 9 -8 8
-27 14 -43 14 -16 0 -41 5 -56 10 -19 7 -30 7 -40 -1 -8 -7 -14 -7 -14 -2 0 6
-26 16 -57 22 -74 15 -143 46 -143 64 0 16 -27 30 -40 22 -9 -6 -70 60 -70 76
0 6 -4 7 -10 4 -5 -3 -10 -1 -10 4 0 6 3 11 8 11 14 0 62 -51 62 -65 0 -8 5
-15 10 -15 13 0 13 6 0 31 -13 24 11 27 30 4 7 -8 15 -13 19 -11 4 3 30 -4 60
-14 29 -9 49 -20 44 -23 -5 -3 -15 -2 -23 4 -19 11 -30 11 -30 1 0 -8 6 -10
48 -14 9 0 21 -6 25 -12 5 -7 6 -3 3 8 -5 14 -2 17 10 12 8 -3 20 -6 25 -6 6
0 8 -4 4 -9 -3 -5 0 -13 6 -17 8 -4 9 -3 5 5 -6 9 0 10 20 5 21 -6 25 -4 19 7
-7 11 -6 12 6 3 8 -5 28 -10 44 -9 17 1 48 -6 70 -15 22 -9 46 -15 54 -12 8 3
11 0 7 -7 -8 -12 6 -15 18 -4 4 4 21 8 38 9 21 1 26 -1 17 -7 -11 -7 -10 -9 4
-9 11 0 15 -4 11 -12 -4 -7 -3 -8 5 -4 6 4 9 11 6 16 -3 4 1 10 9 13 9 4 16
-3 20 -18 4 -16 16 -26 36 -30 16 -4 30 -11 30 -15 0 -9 -67 -26 -82 -22 -14
4 -8 -45 6 -57 10 -9 15 -8 20 4 3 8 1 15 -4 15 -6 0 -10 5 -10 11 0 6 5 7 13
2 22 -14 42 -13 55 4 6 9 12 13 12 8 0 -4 9 0 20 10 11 10 17 22 14 27 -3 4
-2 8 3 7 4 -1 16 1 26 6 15 6 16 10 5 16 -10 7 -10 9 0 9 6 0 20 8 30 18 28
29 84 102 78 102 -4 0 1 11 10 25 9 13 14 30 11 37 -2 7 11 42 29 78 21 38 30
68 25 73 -10 10 -31 1 -31 -14 0 -6 4 -7 10 -4 6 3 7 -1 4 -9 -13 -35 -31 -7
-25 40 1 6 -5 11 -13 11 -8 0 -12 -6 -9 -14 3 -8 -3 -20 -13 -28 -18 -13 -18
-14 4 -37 27 -30 27 -34 1 -41 -12 -3 -18 -10 -14 -16 3 -6 -2 -14 -11 -18
-10 -4 -19 -2 -22 5 -2 6 -10 8 -18 5 -10 -4 -12 0 -8 11 5 13 10 14 20 5 10
-8 20 -6 39 9 14 11 21 23 16 26 -5 4 -16 -1 -24 -9 -19 -19 -31 -19 -47 0
-18 22 -32 8 -18 -18 6 -12 10 -24 9 -26 -1 -3 10 -10 26 -16 l28 -12 -29 0
c-21 0 -33 7 -45 28 -18 32 -20 33 -40 20 -12 -8 -13 -18 -3 -60 14 -61 11
-70 -33 -98 -38 -25 -71 -28 -154 -13 -31 5 -108 17 -171 26 -63 9 -130 19
-149 21 -19 3 -72 20 -118 37 -65 25 -95 32 -136 29 -121 -8 -255 -9 -251 -1
3 4 -13 8 -36 8 l-42 0 7 32 c8 34 8 118 1 153 -14 67 -31 124 -45 148 -13 24
-14 30 -2 50 13 20 13 21 -2 8 -10 -8 -17 -9 -17 -3 0 6 5 14 10 17 6 3 10 17
10 31 0 13 4 24 8 24 9 0 92 -124 92 -137 0 -5 10 -19 23 -33 13 -14 22 -31
20 -37 -2 -6 1 -14 7 -18 12 -8 6 45 -7 54 -14 10 -65 93 -60 97 2 3 17 -10
33 -28 28 -32 47 -39 116 -41 15 0 26 -5 25 -10 -3 -12 30 -33 39 -24 4 4 2
13 -6 20 -10 9 -11 9 -6 0 4 -7 2 -13 -4 -13 -7 0 -9 7 -6 16 3 9 6 17 6 19 0
2 14 -1 30 -6 17 -6 30 -15 30 -20 0 -13 -18 -11 -23 4 -3 7 -6 6 -6 -5 -1
-27 19 -32 40 -9 l20 22 30 -26 c29 -24 43 -29 63 -26 4 1 13 -3 20 -8 6 -5
54 -17 106 -26 52 -10 99 -21 105 -26 15 -14 35 -10 35 6 0 21 41 36 59 21 12
-9 13 -8 8 7 -5 13 -3 16 6 10 6 -4 21 -8 32 -8 11 0 21 -8 23 -19 4 -17 0
-18 -34 -12 -72 14 -84 14 -84 5 0 -5 7 -12 16 -16 13 -5 13 -7 2 -14 -10 -7
-9 -9 4 -9 9 0 20 5 23 10 4 7 13 7 26 0 10 -6 19 -7 19 -2 0 12 67 14 75 2 3
-6 12 -7 18 -3 34 21 42 13 44 -45 2 -50 1 -55 -11 -39 -19 25 -27 21 -16 -9
13 -34 13 -39 -5 -24 -10 8 -15 9 -15 2 0 -6 9 -16 19 -22 16 -8 21 -6 26 10
3 11 11 20 16 20 6 0 7 -4 4 -10 -8 -13 25 -13 45 0 8 5 11 13 6 17 -5 4 -11
2 -13 -4 -3 -7 -9 -13 -15 -13 -6 0 -8 7 -5 15 4 8 2 17 -3 20 -4 3 -10 1 -12
-5 -1 -5 -4 17 -5 50 -1 60 3 67 40 61 5 -1 11 8 14 19 3 11 10 20 15 20 5 0
6 -9 3 -20 -4 -11 -2 -20 4 -20 21 0 11 -29 -20 -61 l-31 -32 25 -14 c14 -7
29 -22 32 -34 4 -11 9 -19 11 -16 10 10 -17 57 -33 57 -15 0 -16 2 -3 10 8 5
11 10 6 10 -5 0 -3 7 4 15 7 8 17 12 22 9 6 -4 5 -10 -3 -15 -8 -5 -9 -9 -3
-9 6 0 14 -19 18 -41 4 -23 9 -39 12 -36 3 3 1 35 -5 72 -10 65 -6 100 9 90 4
-3 13 2 20 10 17 20 24 19 58 -10 19 -16 33 -22 37 -15 4 6 16 8 27 4 14 -4
18 -2 14 5 -10 15 17 14 32 -1 9 -9 15 -9 24 0 7 7 20 12 29 12 9 0 22 7 29
15 11 13 15 13 21 3 5 -7 9 -8 9 -2 0 18 -13 24 -27 13 -7 -6 -13 -9 -13 -5 0
3 -11 1 -25 -4 -13 -5 -27 -5 -30 -1 -5 9 32 25 49 22 5 -1 19 8 31 19 19 18
27 20 44 10 17 -9 22 -8 27 4 3 8 3 19 0 24 -3 6 0 15 8 21 12 10 13 19 6 51
0 3 -5 -3 -11 -13 -6 -9 -14 -15 -19 -12 -4 3 -11 -2 -14 -11 -4 -12 -1 -14
14 -9 42 13 17 -6 -50 -40 -87 -44 -116 -37 -68 15 18 20 19 23 4 17 -25 -10
-45 4 -20 15 17 7 16 8 -3 4 -15 -3 -23 1 -23 9 0 20 22 23 58 8 19 -8 43 -11
54 -7 35 11 2 -36 -37 -52 -19 -7 -36 -18 -40 -24 -4 -6 1 -7 12 -2 77 34 93
44 88 51 -8 14 6 41 22 41 8 0 11 5 8 10 -3 6 3 10 14 10 25 0 29 41 6 60 -18
15 -20 -1 -3 -18 9 -9 9 -14 0 -22 -6 -6 -10 -7 -7 -4 2 4 0 16 -6 26 -7 13
-7 24 -1 30 13 13 52 -11 45 -29 -3 -7 1 -13 7 -13 9 0 8 -6 -3 -18 -23 -26
-10 -35 16 -12 11 11 24 17 28 14 4 -2 10 0 14 6 3 5 11 10 16 10 6 0 7 -5 3
-12 -4 -6 -8 -24 -9 -39 -2 -21 2 -27 15 -26 15 1 16 5 7 24 -7 16 -7 26 2 37
15 18 -15 32 -35 15 -8 -6 -14 -7 -14 -3 0 12 48 64 59 64 4 0 23 27 42 60 19
33 38 60 42 60 5 0 6 -4 3 -9 -3 -5 1 -22 10 -37 15 -27 15 -27 9 -4 -9 34 -9
42 0 65 5 11 5 17 1 13 -4 -3 -23 10 -42 30 l-35 37 -16 -22 c-8 -13 -21 -23
-28 -23 -7 0 -15 -8 -17 -17 -5 -20 16 -78 32 -88 5 -3 10 -10 10 -16 0 -12
-37 -12 -45 1 -3 6 -2 10 3 10 5 0 4 15 -2 35 -13 40 -27 47 -24 11 1 -14 6
-22 10 -20 10 6 11 -10 1 -19 -3 -4 -12 -2 -19 4 -7 6 -19 7 -26 2 -14 -8 -20
-53 -7 -53 10 0 20 30 13 41 -3 5 0 9 5 9 16 0 13 -22 -6 -50 -10 -14 -15 -26
-13 -27 3 -1 3 -3 0 -5 -3 -2 -4 -1 -3 1 1 2 -4 9 -10 16 -10 11 -16 11 -36
-2 -13 -8 -21 -11 -17 -5 7 11 -19 24 -28 14 -11 -11 -46 -12 -46 -2 0 6 6 10
14 10 8 0 17 7 20 16 6 15 9 15 29 -2 12 -10 19 -15 15 -10 -4 5 4 17 17 28
14 11 25 27 25 36 0 15 -2 15 -10 2 -5 -8 -10 -10 -10 -5 0 6 -9 -3 -19 -18
-10 -16 -21 -24 -25 -19 -3 6 -2 13 4 17 5 3 10 11 10 17 0 7 -8 4 -17 -5 -76
-71 -76 -71 -105 -56 -21 11 -24 29 -5 29 7 0 24 12 37 27 18 21 20 30 12 44
-8 13 -7 21 7 33 25 23 34 20 17 -7 -10 -15 -12 -27 -6 -37 8 -12 10 -11 10 7
0 20 3 21 25 13 16 -6 26 -6 31 1 3 6 12 8 19 5 8 -3 19 2 25 9 7 8 16 13 20
10 5 -3 11 -1 15 5 3 5 2 10 -4 10 -7 0 -7 8 -1 24 5 13 6 27 3 30 -4 3 1 6
10 6 9 0 17 4 17 10 0 5 -8 9 -17 8 -49 -4 -75 2 -70 17 4 8 2 17 -2 20 -19
11 -21 -28 -3 -44 11 -9 17 -22 14 -29 -2 -7 1 -18 6 -25 6 -7 7 -18 3 -26 -7
-11 -11 -9 -20 8 -7 12 -11 29 -9 38 2 9 -3 18 -11 21 -10 3 -12 0 -7 -13 3
-10 2 -23 -4 -30 -8 -9 -6 -14 5 -19 24 -9 18 -24 -10 -22 -23 1 -30 24 -12
42 10 11 9 26 -2 20 -5 -3 0 17 10 45 11 28 15 48 9 44 -22 -14 -8 22 20 49
17 17 30 40 31 55 0 16 3 20 6 11 4 -8 16 -23 29 -33 15 -11 25 -34 30 -65 6
-39 9 -43 14 -22 4 14 4 27 1 30 -11 10 -13 62 -2 56 5 -4 7 -14 4 -22 -4 -11
0 -15 12 -12 13 2 21 -8 31 -37 l13 -40 -3 35 -3 34 39 -44 c30 -33 38 -50 33
-67 -3 -13 -1 -23 5 -23 20 0 23 33 6 65 -22 41 -117 124 -146 128 -25 4 -59
43 -60 68 0 9 12 43 27 75 33 72 43 196 23 283 -12 50 -52 138 -70 151 -4 3
-15 20 -24 38 -13 26 -15 40 -7 65 29 93 14 161 -51 233 -31 33 -56 53 -65 50
-8 -3 -11 -1 -8 4 5 8 -55 43 -67 39 -2 0 -10 -3 -18 -6z m33 -20 c-7 -2 -19
-2 -25 0 -7 3 -2 5 12 5 14 0 19 -2 13 -5z m-179 -362 c-10 -10 -21 -14 -23
-8 -4 10 17 27 33 27 5 0 1 -8 -10 -19z m46 -11 c0 -11 -4 -20 -10 -20 -5 0
-10 9 -10 20 0 11 5 20 10 20 6 0 10 -9 10 -20z m-70 -202 c0 -4 -5 -10 -10
-13 -13 -8 -40 19 -40 40 0 14 3 14 25 -2 13 -10 25 -21 25 -25z m30 -60 c0
-13 -23 -5 -28 10 -2 7 2 10 12 6 9 -3 16 -11 16 -16z m413 -86 c-13 -13 -18
-42 -8 -42 3 0 10 10 15 23 l9 22 0 -23 c1 -22 -20 -37 -46 -33 -13 2 -11 24
4 49 8 12 11 27 8 31 -3 5 1 11 7 14 19 6 27 -25 11 -41z m-290 -33 c-17 -17
-37 -1 -22 17 8 10 15 12 23 4 7 -7 7 -13 -1 -21z m-577 2 c-7 -10 -76 -52
-76 -46 0 4 72 55 78 55 2 0 1 -4 -2 -9z m410 -21 c49 0 55 -8 22 -30 -30 -19
-38 -18 -67 2 -17 12 -22 22 -16 35 5 12 9 14 12 6 3 -8 23 -13 49 -13z m-536
-38 c0 -4 -10 -13 -22 -21 -23 -14 -23 -14 -4 8 20 22 26 25 26 13z m398 -45
c2 -11 -1 -15 -11 -12 -16 7 -19 37 -3 32 6 -2 12 -11 14 -20z m-453 3 c-3 -5
-16 -15 -28 -21 -19 -9 -19 -8 3 10 28 23 34 26 25 11z m540 -9 c-3 -6 -11 -8
-17 -5 -6 4 -5 9 3 15 16 10 23 4 14 -10z m-190 -12 c45 -13 107 -57 99 -71
-3 -5 -12 -4 -21 4 -12 10 -18 9 -29 -7 -8 -10 -14 -14 -14 -8 0 5 -16 18 -35
29 -19 10 -35 22 -35 26 0 14 17 8 35 -12 19 -21 41 -28 29 -8 -5 8 -1 9 12 4
14 -5 16 -4 8 4 -6 6 -19 12 -30 14 -10 2 -32 9 -48 15 -16 7 -31 9 -34 6 -3
-3 0 -5 6 -5 21 0 13 -17 -15 -30 l-28 -13 29 -8 c16 -4 33 -6 37 -3 11 7 49
-14 49 -26 0 -6 -7 -10 -15 -10 -8 0 -15 -7 -15 -15 0 -8 -5 -15 -10 -15 -6 0
-8 11 -4 25 7 27 -4 32 -37 15 -15 -8 -19 -7 -19 4 0 28 -22 29 -45 2 -21 -25
-23 -25 -28 -6 -3 12 0 20 7 20 7 0 22 9 34 21 22 20 22 39 -1 39 -9 0 -9 -2
-1 -8 8 -5 4 -13 -11 -25 -17 -12 -26 -14 -31 -5 -11 18 36 50 63 43 13 -3 23
-1 23 5 0 13 25 13 75 -1z m385 1 c0 -6 -7 -10 -16 -10 -8 0 -12 -5 -9 -10 4
-6 12 -7 18 -4 7 4 8 3 4 -2 -5 -5 -23 -9 -40 -10 -18 -1 -26 1 -19 3 6 3 12
12 12 22 0 11 9 17 25 19 14 1 25 -3 25 -8z m-255 -41 c9 -17 15 -36 13 -43
-2 -6 -13 8 -25 31 -12 24 -18 43 -13 43 5 0 17 -14 25 -31z m100 10 c-3 -5 0
-6 8 -3 8 3 18 1 21 -4 3 -5 -6 -12 -19 -15 -14 -2 -28 0 -31 5 -9 14 4 40 16
33 6 -4 8 -11 5 -16z m428 6 c-3 -9 -8 -14 -10 -11 -3 3 -2 9 2 15 9 16 15 13
8 -4z m-828 -35 c3 -5 2 -10 -4 -10 -6 0 -8 -6 -5 -14 3 -8 -3 -16 -15 -19
-24 -6 -26 4 -9 33 14 22 24 25 33 10z m78 -89 c-2 -2 -12 4 -23 14 -19 17
-19 19 -3 38 18 19 18 19 23 -14 3 -19 5 -36 3 -38z m127 26 c0 -27 -50 -56
-123 -72 -23 -5 -34 0 -57 25 -15 16 -33 30 -39 30 -6 0 -11 5 -11 11 0 16 51
2 76 -22 11 -10 33 -19 50 -19 34 0 98 36 89 50 -3 6 -1 10 4 10 6 0 11 -6 11
-13z m117 -17 c10 -20 8 -26 -15 -46 -15 -14 -21 -23 -13 -22 9 2 15 -9 17
-35 3 -27 0 -37 -9 -34 -6 2 -13 14 -13 26 -2 26 -14 42 -14 17 0 -9 -4 -15
-9 -12 -5 4 -11 1 -13 -6 -5 -15 -38 -20 -38 -5 0 8 -4 7 -12 -1 -15 -15 -58
-16 -58 -2 0 6 11 10 24 10 15 0 41 17 70 46 45 46 50 55 47 83 -3 20 23 7 36
-19z m-641 -5 c-11 -8 -22 -12 -25 -9 -6 6 19 24 34 24 6 -1 1 -7 -9 -15z
m434 5 c0 -5 -4 -10 -10 -10 -5 0 -10 5 -10 10 0 6 5 10 10 10 6 0 10 -4 10
-10z m-405 -78 c-3 -3 -11 0 -18 7 -9 10 -8 11 6 5 10 -3 15 -9 12 -12z m80
-12 c-4 -12 -2 -20 5 -20 6 0 8 -5 5 -11 -5 -7 -15 -4 -32 6 -14 10 -22 12
-19 6 9 -14 -41 -14 -139 0 -41 6 -75 16 -75 21 0 14 147 5 162 -10 8 -8 17
-8 30 -1 11 6 26 8 34 5 8 -3 17 1 20 9 9 22 16 18 9 -5z m145 -23 c0 -6 5 -6
13 0 6 5 41 8 77 7 94 -2 97 -2 104 -20 5 -13 4 -14 -7 -6 -8 7 -17 8 -23 3
-8 -8 -202 -24 -284 -24 -73 1 -85 5 -36 13 26 5 55 12 65 16 9 4 22 8 29 10
8 1 15 4 17 6 8 8 45 3 45 -5z m-335 -17 l40 -9 -49 4 c-27 3 -59 5 -72 5 -13
0 -24 5 -24 11 0 12 20 10 105 -11z m1272 -23 c2 -17 1 -19 -7 -7 -8 12 -10
13 -10 1 0 -8 -3 -12 -6 -8 -3 3 -3 15 1 27 8 25 17 19 22 -13z m144 -41 c11
6 39 -13 39 -27 0 -5 -7 -9 -15 -9 -8 0 -18 -14 -23 -32 -8 -34 -32 -51 -32
-23 0 9 -4 13 -10 10 -6 -4 -7 1 -3 11 6 15 7 15 21 -2 14 -18 14 -18 7 1 -4
11 -7 28 -7 39 1 18 1 18 -13 0 -20 -27 -18 -8 3 28 12 21 18 25 20 14 2 -9 8
-14 13 -10z m-1206 -43 c15 -15 15 -17 1 -25 -9 -5 -19 -7 -24 -5 -4 3 -36 8
-72 12 -92 10 -90 19 3 12 42 -3 77 -1 77 3 0 5 -15 11 -32 13 l-33 4 32 1
c18 1 39 -5 48 -15z m855 -43 c0 -5 -10 -20 -22 -32 -15 -15 -17 -20 -5 -15
30 11 26 -9 -4 -22 -27 -12 -32 -11 -44 5 -12 17 -11 19 4 22 10 2 28 14 42
27 28 28 29 28 29 15z m33 -7 c-3 -7 -9 -13 -14 -13 -5 0 -9 6 -9 13 0 8 6 14
14 14 8 0 12 -6 9 -14z m-677 -8 c11 -3 21 -11 21 -19 0 -11 -5 -13 -18 -5
-10 5 -28 9 -41 9 -13 1 -34 7 -48 15 -24 14 -23 14 20 9 25 -3 54 -7 66 -9z
m114 -20 c14 -2 50 -13 80 -25 54 -22 170 -34 170 -17 0 5 5 5 11 1 6 -3 14
-2 18 5 4 6 35 15 70 19 50 7 66 6 77 -5 8 -8 12 -19 8 -24 -3 -5 0 -8 6 -7 7
2 14 -5 15 -15 3 -13 -1 -17 -12 -13 -8 3 -19 6 -24 6 -6 0 -7 5 -4 10 3 6 -1
10 -11 10 -14 0 -14 3 -4 15 7 9 10 18 6 22 -3 3 -6 1 -6 -5 0 -7 -8 -11 -17
-10 -10 1 -33 0 -51 0 -27 -2 -31 -4 -20 -16 11 -12 17 -12 41 0 15 8 27 10
27 5 0 -5 -3 -11 -7 -14 -5 -2 -3 -3 3 -1 13 3 34 -15 34 -29 0 -5 -9 -7 -20
-4 -13 3 -21 -1 -25 -14 -4 -10 -11 -19 -16 -19 -6 0 -8 3 -6 8 3 4 -6 7 -19
7 -34 0 -30 -10 9 -22 29 -8 30 -10 9 -15 -12 -3 -20 -2 -16 3 3 5 -2 9 -10 9
-10 0 -13 -6 -9 -17 5 -13 -1 -11 -20 7 -23 22 -24 26 -9 32 15 6 15 7 1 7
-18 1 -35 31 -19 31 6 0 10 -4 10 -10 0 -5 4 -10 10 -10 5 0 7 7 4 15 -4 10 0
15 12 15 15 0 16 2 5 9 -10 6 -21 5 -33 -3 -24 -17 -144 -12 -216 10 -31 9
-62 17 -69 17 -7 0 -10 5 -6 10 3 5 -3 7 -13 3 -21 -6 -38 2 -42 23 -2 10 4
12 25 6 15 -5 39 -9 53 -10z m810 -20 c10 -12 10 -18 0 -30 -7 -9 -15 -13 -18
-10 -3 2 1 12 8 20 11 13 11 16 0 13 -7 -2 -15 3 -17 10 -6 17 12 15 27 -3z
m-281 -44 c-43 -33 -95 -61 -115 -61 -19 0 -13 25 7 26 30 1 59 16 59 31 0 10
6 13 16 9 9 -3 21 -3 27 1 7 4 3 9 -9 14 -14 5 -10 7 14 6 l34 0 -33 -26z
m248 -1 c-6 -17 -15 -26 -20 -21 -5 5 -3 18 5 30 19 31 28 26 15 -9z m-182 10
c-9 -14 8 -13 23 2 9 9 12 9 12 0 0 -7 10 -12 23 -13 12 0 16 -3 10 -6 -18 -7
-16 -24 5 -39 16 -12 16 -14 1 -29 -14 -14 -20 -15 -35 -5 -17 10 -17 11 -1 6
18 -6 21 2 11 28 -7 18 -24 22 -24 5 0 -6 -7 -17 -15 -25 -13 -14 -15 -14 -15
0 0 13 -3 14 -18 5 -14 -9 -23 -9 -38 0 -18 11 -17 12 3 6 18 -5 22 -3 17 10
-4 9 -9 14 -13 13 -3 -2 -30 -14 -59 -28 -54 -25 -63 -42 -23 -45 14 -1 20 3
17 12 -3 7 1 13 9 13 26 0 26 -20 1 -45 -27 -27 -26 -31 6 -14 16 8 24 8 35
-4 17 -17 10 -37 -13 -37 -8 0 -14 -5 -14 -11 0 -5 5 -7 10 -4 6 3 10 1 10 -5
0 -6 5 -8 12 -4 6 4 8 3 5 -3 -4 -6 -20 -13 -37 -17 -17 -3 -29 -10 -26 -15 7
-11 -51 1 -81 18 -19 10 -24 8 -34 -11 -8 -15 -14 -18 -17 -10 -3 10 -7 10
-18 1 -8 -7 -17 -9 -21 -5 -3 3 -1 6 6 6 8 0 10 7 6 19 -8 26 33 54 68 47 14
-2 28 1 31 7 3 8 11 4 22 -10 18 -26 51 -31 51 -9 0 11 -5 13 -19 5 -15 -8
-18 -6 -18 11 0 11 -7 20 -16 20 -9 0 -14 8 -13 18 3 32 -1 41 -16 36 -8 -4
-15 -10 -15 -16 0 -5 5 -6 10 -3 6 4 10 -5 10 -19 0 -17 -5 -26 -16 -26 -10 0
-14 6 -10 15 3 8 1 15 -5 15 -6 0 -7 5 -4 10 4 6 -8 11 -27 11 l-33 2 38 10
c20 6 37 14 37 19 0 5 -4 6 -10 3 -5 -3 -10 1 -10 9 0 20 19 21 26 2 6 -17 41
-10 68 13 10 9 20 15 22 13 7 -5 84 41 84 50 0 4 7 8 16 8 8 0 12 -4 9 -10z
m400 -61 c-4 -11 -2 -19 4 -19 6 0 11 -4 11 -10 0 -15 -29 -12 -46 4 -18 19
-18 30 1 22 8 -3 15 -1 15 4 0 6 -5 10 -11 10 -5 0 -8 4 -4 10 10 17 36 -1 30
-21z m-470 -19 c3 -5 -1 -10 -9 -10 -9 0 -16 5 -16 10 0 6 4 10 9 10 6 0 13
-4 16 -10z m975 -76 c0 -8 7 -14 16 -14 12 0 15 -6 11 -21 -3 -12 -3 -18 0
-15 4 3 17 -15 30 -40 13 -26 22 -49 19 -51 -3 -3 -17 7 -33 21 -32 30 -46 33
-41 9 2 -11 11 -17 21 -15 9 2 17 -1 17 -6 0 -13 37 -54 46 -52 5 1 10 -4 13
-12 2 -7 0 -10 -4 -6 -5 4 -14 3 -22 -3 -11 -10 -11 -16 2 -36 9 -13 13 -28
10 -33 -3 -6 1 -10 10 -10 9 0 14 -4 11 -8 -3 -5 6 -15 20 -23 17 -9 24 -19
21 -31 -3 -10 -1 -15 4 -12 10 6 29 -36 22 -48 -2 -5 1 -8 6 -8 6 0 11 -5 11
-11 0 -5 -5 -7 -12 -3 -8 5 -9 2 -5 -10 4 -10 7 -27 8 -39 1 -20 2 -20 9 3 l8
25 1 -26 c1 -14 6 -30 12 -36 8 -8 8 -35 0 -97 -6 -47 -8 -94 -5 -104 5 -16 5
-16 -6 1 -6 9 -15 15 -21 12 -5 -4 -9 -1 -9 4 0 6 5 11 10 11 15 0 13 143 -2
159 -11 11 -9 13 11 8 14 -4 20 -2 15 3 -5 5 -26 12 -47 15 -29 5 -37 3 -37
-9 0 -9 -4 -16 -10 -16 -12 0 -1 31 15 45 8 7 11 28 7 63 -4 47 -7 52 -26 50
-14 -2 -20 2 -18 11 2 7 -3 21 -11 30 -14 16 -47 79 -47 89 0 3 9 -3 19 -12
11 -10 17 -25 15 -34 -5 -14 -3 -14 6 1 9 14 6 23 -16 50 -15 18 -29 31 -30
30 -2 -2 -3 -2 -2 0 1 1 -4 13 -11 25 -7 13 -15 36 -17 50 -3 15 -11 34 -18
42 -16 19 -66 104 -66 113 0 4 6 6 13 5 6 -2 11 3 10 10 -2 6 2 12 8 12 5 0 7
6 4 13 -4 6 7 -3 24 -22 17 -18 31 -40 31 -47z m-1220 46 c0 -5 -4 -10 -10
-10 -5 0 -10 5 -10 10 0 6 5 10 10 10 6 0 10 -4 10 -10z m724 -9 c8 -13 -21
-34 -39 -27 -25 9 -18 36 9 36 14 0 27 -4 30 -9z m-685 -10 c7 -5 11 -13 7
-19 -3 -6 0 -12 6 -15 7 -2 9 -8 5 -13 -5 -5 -17 2 -27 16 -29 37 -24 52 9 31z
m721 -1 c0 -5 -5 -10 -10 -10 -7 0 -7 -7 0 -21 7 -11 9 -23 6 -26 -3 -3 1 -12
9 -20 12 -11 13 -19 3 -36 -8 -15 -13 -18 -16 -8 -2 7 1 17 8 21 8 5 0 15 -25
30 -37 23 -43 40 -6 20 12 -6 21 -7 21 -1 0 5 -7 11 -15 15 -13 5 -13 9 -3 26
14 21 28 27 28 10z m-1773 -227 c4 -102 2 -133 -7 -133 -10 0 -10 -3 0 -15 7
-8 10 -22 6 -30 -3 -8 -1 -15 4 -15 5 0 11 8 13 18 4 13 5 13 6 -4 1 -15 -7
-24 -21 -28 -40 -10 -50 -7 -43 13 3 10 -1 24 -10 31 -16 13 -21 35 -6 25 6
-3 9 62 7 167 -1 97 1 158 5 138 5 -19 9 -82 10 -140 1 -57 6 -116 10 -130 9
-25 4 181 -6 275 l-5 50 16 -45 c11 -29 18 -93 21 -177z m1097 201 c4 -10 1
-14 -6 -12 -15 5 -23 28 -10 28 5 0 13 -7 16 -16z m321 -14 c-3 -5 -11 -10
-16 -10 -6 0 -7 5 -4 10 3 6 11 10 16 10 6 0 7 -4 4 -10z m-424 -73 c-14 -15
-21 -17 -21 -8 0 21 33 56 38 41 3 -7 -5 -22 -17 -33z m647 8 c0 -21 -7 -40
-17 -48 -9 -6 -22 -25 -29 -41 -7 -16 -15 -26 -19 -23 -3 4 0 13 7 22 11 14 7
19 -12 16 -5 0 -8 4 -8 9 0 6 13 13 29 16 23 5 28 11 29 35 1 26 8 49 17 49 1
0 3 -16 3 -35z m-658 21 c0 -11 -19 -15 -25 -6 -3 5 1 10 9 10 9 0 16 -2 16
-4z m728 -16 c4 -12 2 -13 -9 -2 -7 6 -18 12 -23 12 -6 0 0 -9 14 -20 14 -11
27 -15 31 -9 3 6 12 3 20 -7 9 -12 10 -15 2 -10 -7 4 -13 2 -13 -3 0 -6 5 -11
10 -11 6 0 10 -5 10 -11 0 -6 -6 -9 -14 -6 -8 3 -16 2 -18 -3 -2 -5 -12 -2
-23 7 -19 15 -19 15 5 8 24 -7 24 -6 8 11 -15 15 -20 16 -30 5 -11 -10 -9 -15
6 -27 11 -7 17 -17 13 -20 -4 -4 -13 -1 -22 6 -17 14 -50 6 -40 -10 3 -5 1
-10 -5 -10 -6 0 -9 -4 -6 -8 3 -5 -1 -9 -9 -9 -11 0 -12 4 -4 14 6 7 8 13 5
13 -4 0 6 12 21 26 16 14 29 38 29 52 2 35 1 34 21 30 9 -2 18 -10 21 -18z
m-844 -10 c-22 -9 -29 -6 -20 9 4 6 14 7 23 4 15 -6 14 -7 -3 -13z m43 6 c-3
-8 -1 -17 6 -19 7 -2 9 -8 4 -12 -11 -13 -28 10 -21 28 3 9 8 17 11 17 3 0 3
-6 0 -14z m-1047 -22 c0 -8 -4 -13 -9 -10 -4 3 -14 -13 -21 -35 -8 -22 -17
-42 -22 -45 -4 -3 1 18 12 46 11 28 20 53 20 55 0 3 5 5 10 5 6 0 10 -7 10
-16z m830 1 c0 -8 -4 -15 -10 -15 -5 0 -7 7 -4 15 4 8 8 15 10 15 2 0 4 -7 4
-15z m190 -5 c0 -5 -5 -10 -11 -10 -5 0 -7 5 -4 10 3 6 8 10 11 10 2 0 4 -4 4
-10z m400 0 c0 -5 -4 -10 -9 -10 -6 0 -13 5 -16 10 -3 6 1 10 9 10 9 0 16 -4
16 -10z m-93 -6 c-3 -3 -12 -4 -19 -1 -8 3 -5 6 6 6 11 1 17 -2 13 -5z m253
-48 c0 -3 -4 -8 -10 -11 -5 -3 -10 -1 -10 4 0 6 5 11 10 11 6 0 10 -2 10 -4z
m220 -12 c0 -8 4 -13 8 -10 13 8 35 -11 28 -23 -10 -16 -26 -14 -20 3 4 11 0
13 -15 9 -30 -8 -34 -18 -13 -34 15 -13 16 -12 3 4 -7 9 -9 17 -3 17 12 0 37
-58 28 -67 -3 -3 -6 1 -6 9 0 18 -53 43 -69 33 -6 -3 -11 1 -11 9 0 9 9 16 20
16 20 0 44 32 33 44 -3 3 -1 6 5 6 7 0 12 -7 12 -16z m-275 -4 c-3 -5 -11 -10
-16 -10 -6 0 -7 5 -4 10 3 6 11 10 16 10 6 0 7 -4 4 -10z m341 -17 c-10 -10
-19 5 -10 18 6 11 8 11 12 0 2 -7 1 -15 -2 -18z m-472 -9 c3 -8 2 -12 -4 -9
-6 3 -10 10 -10 16 0 14 7 11 14 -7z m1103 -46 c-4 -15 1 -30 16 -47 l22 -24
-22 14 c-27 16 -48 53 -39 68 13 20 29 12 23 -11z m-728 3 c21 -13 26 -55 6
-47 -44 18 -50 18 -30 2 19 -16 19 -17 -4 -13 -29 4 -37 43 -12 57 20 12 23
12 40 1z m-119 -21 c0 -21 -15 -27 -25 -10 -7 12 2 30 16 30 5 0 9 -9 9 -20z
m40 -2 c0 -6 -7 -19 -16 -29 -14 -16 -14 -20 1 -48 14 -28 14 -31 0 -31 -9 0
-18 7 -21 15 -3 8 -14 17 -25 20 -26 8 -24 19 6 35 13 7 27 21 31 32 6 20 24
25 24 6z m-443 -30 c-3 -8 -6 -5 -6 6 -1 11 2 17 5 13 3 -3 4 -12 1 -19z
m-1334 -13 c-7 -21 -13 -19 -13 6 0 11 4 18 10 14 5 -3 7 -12 3 -20z m1687 1
c0 -25 -25 -43 -35 -25 -10 15 5 49 21 49 8 0 14 -10 14 -24z m-270 -20 c0 4
6 1 14 -5 11 -10 16 -8 21 8 3 12 11 21 18 21 8 0 8 -3 -1 -12 -7 -7 -12 -20
-12 -30 0 -26 -31 -39 -55 -22 -10 8 -13 14 -7 14 10 0 10 3 0 14 -7 8 -17 11
-21 7 -11 -11 2 -41 18 -41 7 0 16 -7 19 -16 3 -8 2 -12 -3 -9 -5 3 -12 1 -16
-5 -3 -5 -1 -10 6 -10 6 0 0 -9 -14 -20 -14 -11 -33 -20 -42 -20 -10 0 -13 -5
-9 -12 5 -8 2 -9 -11 -4 -10 4 -21 2 -25 -5 -5 -8 -15 -7 -36 5 l-29 15 31 1
c16 0 35 5 42 12 7 7 12 8 12 4 0 -5 11 -1 24 8 18 11 26 12 29 3 2 -6 4 1 3
16 -1 28 -1 28 -18 7 -26 -32 -28 -24 -7 30 10 28 15 50 10 50 -5 0 -12 -8
-14 -17 -4 -14 -5 -13 -6 4 -1 28 17 34 52 16 15 -7 27 -11 27 -7z m450 7 c0
-8 -9 -11 -22 -9 -13 3 -31 5 -40 5 -37 2 -16 17 22 16 25 0 40 -5 40 -12z
m-1618 -25 c-7 -7 -12 -8 -12 -2 0 14 12 26 19 19 2 -3 -1 -11 -7 -17z m1562
-18 c6 0 4 5 -4 10 -11 7 -3 10 29 10 42 0 43 -1 25 -15 -10 -8 -24 -15 -31
-15 -6 0 -13 -5 -15 -12 -6 -18 -25 -1 -37 34 -10 32 -10 32 6 11 8 -13 21
-23 27 -23z m-1301 13 c-13 -2 -35 -2 -50 0 -16 2 -5 4 22 4 28 0 40 -2 28 -4z
m58 -46 c-10 -9 -11 -8 -5 6 3 10 9 15 12 12 3 -3 0 -11 -7 -18z m-161 2 c0
-6 -9 -8 -20 -4 -14 5 -20 2 -20 -10 0 -12 6 -15 20 -10 11 4 20 2 20 -4 0
-14 -37 -14 -45 -1 -3 5 -12 7 -20 3 -8 -3 -15 0 -15 7 0 6 5 8 10 5 6 -3 10
1 10 9 0 11 9 16 30 16 17 0 30 -5 30 -11z m40 -19 c0 -11 5 -20 12 -20 6 0 9
-3 5 -6 -8 -8 -47 6 -47 17 0 6 6 7 13 3 8 -5 8 -2 -2 9 -12 15 -11 17 3 17 9
0 16 -8 16 -20z m-280 -15 c0 -8 -4 -15 -10 -15 -5 0 -10 7 -10 15 0 8 5 15
10 15 6 0 10 -7 10 -15z m893 -12 c-7 -2 -19 -2 -25 0 -7 3 -2 5 12 5 14 0 19
-2 13 -5z m186 -50 c-10 -11 -14 -11 -20 -1 -14 21 -10 26 11 21 16 -4 18 -8
9 -20z m70 -12 c-23 -18 -54 -18 -65 1 -4 6 2 8 15 3 11 -3 29 -2 38 4 29 17
37 12 12 -8z m633 7 c-9 -9 -15 -9 -24 0 -9 9 -7 12 12 12 19 0 21 -3 12 -12z
m-1497 -16 c-3 -3 0 -11 6 -19 8 -9 8 -13 1 -13 -6 0 -14 5 -17 10 -4 6 -11 8
-16 5 -5 -3 -6 0 -3 8 2 7 11 14 19 14 8 0 13 -3 10 -5z m1295 -20 c-19 -7
-40 -28 -40 -41 0 -6 -4 -11 -10 -11 -17 0 -11 16 16 43 15 15 31 24 37 20 7
-4 6 -8 -3 -11z m200 -16 c0 -3 -4 -8 -10 -11 -5 -3 -10 -1 -10 4 0 6 5 11 10
11 6 0 10 -2 10 -4z m-925 -16 c3 -6 -1 -7 -9 -4 -18 7 -21 14 -7 14 6 0 13
-4 16 -10z m-650 -21 c5 -5 -6 -9 -28 -9 -29 0 -35 3 -31 15 6 16 39 12 59 -6z
m720 11 c3 -6 -4 -10 -17 -10 -18 0 -20 2 -8 10 19 12 18 12 25 0z m905 -10
c0 -5 -4 -10 -10 -10 -5 0 -10 5 -10 10 0 6 5 10 10 10 6 0 10 -4 10 -10z
m697 -90 c0 -28 -4 -53 -10 -57 -6 -4 -8 2 -5 15 4 12 3 22 -1 22 -4 0 -5 16
-3 35 6 52 18 42 19 -15z m-117 -80 c-12 -17 -24 -29 -27 -26 -3 2 5 18 18 35
29 40 38 32 9 -9z m-650 -30 c0 -5 -5 -10 -11 -10 -5 0 -7 5 -4 10 3 6 8 10
11 10 2 0 4 -4 4 -10z m41 -40 c23 0 25 -26 5 -49 -12 -14 -12 -19 -1 -35 14
-18 14 -18 14 0 0 11 3 31 7 47 7 28 -11 61 -27 51 -5 -3 -9 2 -9 10 0 9 6 16
14 16 19 0 38 -25 40 -54 0 -13 4 -22 7 -20 4 2 20 -2 35 -9 22 -9 29 -18 28
-40 -1 -35 -5 -38 -48 -42 -19 -2 -40 -6 -46 -10 -5 -3 -10 0 -11 7 0 10 -2
10 -6 1 -2 -7 -18 -13 -34 -13 -22 0 -27 4 -22 16 4 11 9 12 16 5 6 -6 16 -11
22 -11 5 0 2 5 -9 11 -15 9 -16 13 -5 20 10 6 11 9 2 9 -7 0 -22 -9 -34 -21
-24 -24 -39 -18 -18 7 13 16 11 17 -13 10 -32 -7 -34 -4 -12 29 14 22 44 25
44 4 0 -4 -7 -6 -15 -3 -8 4 -15 2 -15 -4 0 -20 30 -21 40 -2 7 14 7 20 0 20
-15 0 -12 26 5 40 8 7 16 22 16 34 2 20 2 20 6 -1 3 -15 12 -23 24 -23z m-791
18 c36 5 40 -13 6 -22 -14 -3 -38 -18 -55 -32 -17 -14 -31 -23 -31 -19 0 3
-11 -7 -25 -22 -32 -36 -32 -26 0 17 14 19 25 30 25 25 0 -5 11 2 24 14 14 13
23 28 22 35 -2 6 -1 8 1 5 2 -3 17 -3 33 -1z m720 -19 c0 -12 -92 -127 -102
-128 -4 -1 -10 15 -14 34 -3 19 -10 35 -15 35 -9 0 -8 45 2 54 9 10 59 15 54
5 -4 -5 -12 -9 -19 -9 -19 0 -39 -27 -31 -40 4 -7 23 4 50 29 41 37 75 46 75
20z m-576 -2 c7 -7 11 -18 8 -26 -3 -10 1 -12 18 -8 20 5 21 4 9 -8 -23 -22
-66 -29 -66 -11 0 9 4 16 9 16 4 0 8 7 8 15 0 8 -5 15 -11 15 -5 0 -7 5 -4 10
8 13 14 13 29 -3z m-29 -20 c6 -5 2 -6 -8 -3 -14 4 -17 2 -13 -12 6 -19 -13
-54 -20 -36 -6 15 -62 9 -83 -10 -20 -18 -47 -21 -56 -7 -8 13 57 61 83 61 11
0 24 5 28 11 3 6 15 9 25 6 11 -3 19 0 19 6 0 6 3 6 8 1 4 -5 12 -13 17 -17z
m1278 -1 c4 -10 1 -13 -8 -9 -8 3 -12 9 -9 14 7 12 11 11 17 -5z m-1246 -76
c1 -16 -2 -18 -23 -10 -15 6 -23 6 -19 1 3 -5 1 -12 -4 -15 -5 -3 -11 3 -14
14 -5 18 3 23 48 29 6 0 11 -8 12 -19z m1368 0 c3 -5 1 -10 -4 -10 -6 0 -11 5
-11 10 0 6 2 10 4 10 3 0 8 -4 11 -10z m0 -29 c3 -5 2 -12 -3 -15 -5 -3 -9 1
-9 9 0 17 3 19 12 6z m-1150 -121 c-3 -5 -11 -10 -16 -10 -6 0 -7 5 -4 10 3 6
11 10 16 10 6 0 7 -4 4 -10z m35 -10 c0 -5 -4 -10 -10 -10 -5 0 -10 5 -10 10
0 6 5 10 10 10 6 0 10 -4 10 -10z m-36 -15 c19 -10 33 -12 40 -6 15 12 103
-28 131 -60 19 -20 17 -20 -32 5 -29 14 -53 23 -53 20 0 -4 -6 -2 -12 4 -7 5
-34 13 -60 17 -41 6 -57 3 -114 -24 -36 -17 -69 -31 -72 -31 -16 0 48 55 83
71 49 23 53 23 89 4z m311 -61 c17 -12 18 -16 5 -24 -15 -9 -33 7 -24 22 3 4
-2 5 -10 2 -9 -3 -16 -1 -16 5 0 15 21 13 45 -5z m469 -26 c-9 -15 -22 -8 -19
10 2 9 4 19 4 22 1 3 5 -2 10 -10 6 -8 7 -18 5 -22z m-259 -146 c-3 -3 -11 0
-18 7 -9 10 -8 11 6 5 10 -3 15 -9 12 -12z m169 2 c5 -14 4 -15 -9 -4 -17 14
-19 20 -6 20 5 0 12 -7 15 -16z"/>
<path d="M986 2247 c3 -10 9 -15 12 -12 3 3 0 11 -7 18 -10 9 -11 8 -5 -6z"/>
<path d="M1960 2050 c0 -5 7 -7 15 -4 8 4 15 8 15 10 0 2 -7 4 -15 4 -8 0 -15
-4 -15 -10z"/>
<path d="M1130 1925 c14 -8 30 -14 35 -14 6 0 -1 6 -15 14 -14 8 -29 14 -35
14 -5 0 1 -6 15 -14z"/>
<path d="M1396 1883 c-11 -11 -6 -23 9 -23 8 0 15 4 15 9 0 13 -16 22 -24 14z"/>
<path d="M1426 1875 c4 -8 10 -12 15 -9 11 6 2 24 -11 24 -5 0 -7 -7 -4 -15z"/>
<path d="M1651 1876 c-8 -10 -9 -16 -1 -21 5 -3 10 -1 10 6 0 7 6 4 14 -7 18
-24 31 -13 16 15 -13 25 -23 26 -39 7z"/>
<path d="M1525 1760 c-3 -6 1 -7 9 -4 18 7 21 14 7 14 -6 0 -13 -4 -16 -10z"/>
<path d="M1432 1701 c-11 -6 -10 -10 4 -15 10 -4 20 -3 22 3 2 6 12 5 27 -5
28 -19 63 -26 70 -14 3 5 -4 7 -15 5 -11 -2 -23 2 -27 9 -10 17 -64 29 -81 17z"/>
<path d="M2544 1730 c0 -11 6 -20 13 -20 11 0 11 5 3 20 -6 11 -12 20 -13 20
-2 0 -3 -9 -3 -20z"/>
<path d="M2581 1704 c0 -11 3 -14 6 -6 3 7 2 16 -1 19 -3 4 -6 -2 -5 -13z"/>
<path d="M2560 1693 c0 -15 18 -35 23 -27 3 5 -1 15 -9 22 -8 7 -14 9 -14 5z"/>
<path d="M2621 1664 c0 -11 3 -14 6 -6 3 7 2 16 -1 19 -3 4 -6 -2 -5 -13z"/>
<path d="M2600 1592 c5 -10 18 -28 29 -42 l21 -25 0 23 c0 12 -4 22 -10 22 -5
0 -10 6 -10 14 0 7 -9 16 -20 19 -16 4 -18 2 -10 -11z"/>
<path d="M2676 1428 c22 -27 37 -38 42 -34 4 5 -47 56 -55 56 -3 0 2 -10 13
-22z"/>
<path d="M2735 1327 c2 -17 4 -34 5 -37 1 -3 2 -8 1 -12 0 -5 4 -8 9 -8 12 0
13 17 1 24 -4 3 -6 16 -4 30 3 13 0 26 -5 30 -6 3 -9 -8 -7 -27z"/>
<path d="M1968 1488 c5 -5 16 -8 23 -6 8 3 3 7 -10 11 -17 4 -21 3 -13 -5z"/>
<path d="M1550 1390 c0 -5 7 -10 16 -10 8 0 12 5 9 10 -3 6 -10 10 -16 10 -5
0 -9 -4 -9 -10z"/>
<path d="M1366 887 c-16 -12 -16 -13 3 -14 12 -1 21 4 21 13 0 17 -2 17 -24 1z"/>
<path d="M1660 3170 c0 -5 5 -10 11 -10 5 0 9 -8 8 -17 -2 -29 0 -43 9 -43 4
0 9 12 10 28 1 18 -5 31 -18 40 -12 7 -20 8 -20 2z"/>
<path d="M1545 3080 c-3 -5 1 -10 10 -10 9 0 13 5 10 10 -3 6 -8 10 -10 10 -2
0 -7 -4 -10 -10z"/>
<path d="M1645 3060 c-11 -5 -16 -9 -11 -9 6 -1 2 -7 -9 -14 -12 -10 -14 -16
-7 -21 7 -4 12 -16 12 -28 0 -17 4 -19 26 -14 18 5 24 3 18 -5 -4 -7 -3 -9 4
-5 5 3 12 0 15 -6 2 -7 8 -9 13 -5 5 4 3 12 -4 16 -7 4 -10 15 -7 24 4 9 2 24
-4 34 -9 16 -10 14 -11 -10 0 -16 -4 -26 -9 -23 -5 4 -11 0 -14 -6 -2 -7 -8
-9 -13 -5 -5 5 -1 14 9 21 9 7 17 19 17 27 0 8 -5 5 -14 -7 -8 -10 -18 -16
-22 -11 -4 4 3 18 16 32 25 27 25 28 -5 15z"/>
<path d="M1591 3034 c0 -11 3 -14 6 -6 3 7 2 16 -1 19 -3 4 -6 -2 -5 -13z"/>
<path d="M1655 2930 c4 -6 11 -8 16 -5 14 9 11 15 -7 15 -8 0 -12 -5 -9 -10z"/>
<path d="M1690 2931 c0 -4 8 -16 18 -27 18 -19 22 -27 22 -41 0 -4 5 -2 12 5
10 10 5 19 -20 42 -18 16 -32 25 -32 21z"/>
<path d="M1513 2923 c-18 -7 -16 -23 2 -23 8 0 15 -5 15 -11 0 -5 -5 -7 -11
-3 -15 9 -1 -53 18 -83 17 -26 45 -39 36 -17 -3 10 0 12 10 8 9 -3 20 -19 26
-35 8 -24 31 -41 31 -23 0 21 -44 77 -54 67 -3 -3 -9 3 -13 13 -4 10 -14 24
-22 31 -14 11 -14 12 2 13 9 0 17 5 17 11 0 6 -7 8 -16 5 -10 -4 -15 0 -13 12
4 41 -1 47 -28 35z"/>
<path d="M1316 2844 c-3 -9 -3 -21 1 -27 4 -7 6 -21 5 -32 -3 -20 -2 -20 13
-1 18 23 19 36 4 36 -6 0 -9 9 -6 20 6 24 -8 27 -17 4z"/>
<path d="M1752 2848 c5 -15 28 -23 28 -10 0 5 -7 13 -16 16 -10 4 -14 1 -12
-6z"/>
<path d="M1480 2840 c0 -5 5 -10 11 -10 5 0 7 5 4 10 -3 6 -8 10 -11 10 -2 0
-4 -4 -4 -10z"/>
<path d="M1702 2823 c7 -9 14 -11 16 -5 2 6 11 8 20 5 9 -3 14 -3 10 1 -3 4
-18 9 -32 10 -22 3 -24 1 -14 -11z"/>
<path d="M1486 2806 c3 -9 11 -16 16 -16 13 0 5 23 -10 28 -7 2 -10 -2 -6 -12z"/>
<path d="M1361 2802 c-20 -7 -12 -21 11 -17 30 6 47 24 21 22 -11 0 -25 -3
-32 -5z"/>
<path d="M1446 2776 c-10 -19 -15 -39 -11 -45 3 -7 1 -10 -6 -9 -7 2 -13 -5
-14 -14 0 -10 5 -17 10 -15 6 1 9 5 8 10 -2 4 2 7 8 7 6 0 9 9 6 20 -5 19 3
24 41 23 6 -1 12 5 12 12 0 8 -8 11 -19 8 -16 -4 -19 -1 -14 16 8 31 0 26 -21
-13z"/>
<path d="M1635 2788 c3 -13 10 -38 15 -56 11 -46 21 -53 15 -11 -4 29 -3 28
10 -11 9 -25 18 -65 22 -90 12 -84 64 -174 63 -107 -1 26 -28 129 -29 108 -2
-27 -18 3 -30 53 -11 46 -56 136 -68 136 -3 0 -2 -10 2 -22z m102 -240 c-3 -8
-6 -5 -6 6 -1 11 2 17 5 13 3 -3 4 -12 1 -19z"/>
<path d="M1515 2780 c-4 -6 -1 -10 6 -10 8 0 8 -4 -2 -16 -11 -13 -11 -15 2
-14 28 4 39 0 39 -15 0 -18 9 -19 32 -2 11 9 14 18 7 28 -7 11 -9 11 -9 -4 0
-19 -4 -17 -50 25 -11 10 -22 13 -25 8z"/>
<path d="M1180 2713 c-8 -3 -18 -11 -22 -16 -3 -6 -14 -12 -23 -13 -24 -4 -28
-11 -11 -17 8 -3 26 3 39 13 13 11 26 17 29 15 3 -3 5 2 5 10 0 8 -1 15 -1 14
-1 0 -8 -3 -16 -6z"/>
<path d="M1791 2700 c14 -31 19 -36 19 -24 0 6 -7 19 -16 30 -14 18 -14 18 -3
-6z"/>
<path d="M1110 2706 c0 -2 9 -6 20 -9 11 -3 18 -1 14 4 -5 9 -34 13 -34 5z"/>
<path d="M1600 2706 c0 -2 7 -6 15 -10 8 -3 15 -1 15 4 0 6 -7 10 -15 10 -8 0
-15 -2 -15 -4z"/>
<path d="M1575 2690 c3 -5 8 -10 11 -10 2 0 4 5 4 10 0 6 -5 10 -11 10 -5 0
-7 -4 -4 -10z"/>
<path d="M1588 2672 c-23 -4 -22 -8 2 -41 10 -16 22 -41 25 -57 2 -16 7 -42
11 -59 3 -16 2 -26 -2 -22 -4 3 -12 0 -18 -7 -10 -13 -49 -20 -100 -17 -25 1
-13 13 15 15 12 0 24 7 27 15 4 11 0 12 -14 6 -38 -16 -76 -18 -86 -4 -8 11
-8 10 -4 -4 3 -10 6 -23 6 -28 0 -5 5 -9 11 -9 5 0 7 5 3 11 -4 7 11 0 32 -15
40 -27 78 -34 89 -16 3 6 11 10 17 10 6 0 3 -9 -7 -20 -10 -11 -13 -20 -8 -20
10 0 20 17 24 38 3 18 21 42 32 42 9 0 12 14 9 43 -4 62 -11 89 -21 82 -5 -3
-7 4 -4 15 4 15 2 19 -10 14 -17 -6 -32 11 -17 21 5 3 10 2 10 -3 0 -5 11 -8
25 -7 14 2 23 -1 20 -5 -8 -14 6 -61 16 -54 5 3 9 -3 9 -12 0 -10 3 -14 7 -11
3 4 1 17 -5 30 -6 12 -13 34 -16 50 -7 28 -20 31 -78 19z"/>
<path d="M1156 2655 c-21 -9 -25 -14 -15 -20 7 -5 14 -4 17 3 2 7 17 12 32 12
16 0 31 4 34 9 8 12 -34 10 -68 -4z"/>
<path d="M1090 2650 c8 -5 20 -10 25 -10 6 0 3 5 -5 10 -8 5 -19 10 -25 10 -5
0 -3 -5 5 -10z"/>
<path d="M1174 2628 c-4 -6 1 -17 11 -25 25 -17 36 -17 29 2 -4 8 -14 15 -23
15 -14 0 -14 2 -1 10 9 6 10 10 3 10 -6 0 -15 -5 -19 -12z"/>
<path d="M1095 2620 c-3 -6 1 -7 9 -4 18 7 21 14 7 14 -6 0 -13 -4 -16 -10z"/>
<path d="M1061 2601 c-8 -5 -9 -11 -3 -15 5 -3 12 1 16 9 6 17 6 18 -13 6z"/>
<path d="M1230 2600 c0 -5 5 -10 11 -10 5 0 7 5 4 10 -3 6 -8 10 -11 10 -2 0
-4 -4 -4 -10z"/>
<path d="M1260 2590 c0 -5 7 -10 16 -10 8 0 12 5 9 10 -3 6 -10 10 -16 10 -5
0 -9 -4 -9 -10z"/>
<path d="M1545 2572 c18 -16 24 -30 21 -45 -3 -12 -3 -17 0 -10 3 7 13 9 22 6
16 -6 15 -5 0 14 -10 11 -18 25 -18 31 0 7 -6 12 -12 12 -9 0 -8 4 2 10 11 8
9 9 -13 8 l-27 -2 25 -24z"/>
<path d="M1680 2549 c0 -5 -4 -7 -10 -4 -5 3 -10 0 -10 -8 0 -7 7 -14 15 -14
8 0 15 9 15 19 0 10 -2 18 -5 18 -3 0 -5 -5 -5 -11z"/>
<path d="M1675 2463 c-8 -60 -16 -77 -66 -133 -22 -25 -35 -35 -29 -22 7 15 7
22 0 22 -5 0 -10 -6 -10 -12 0 -9 -4 -8 -11 2 -8 11 -9 9 -3 -10 3 -14 11 -30
16 -37 13 -16 41 -4 34 14 -3 8 -1 11 4 8 5 -3 12 6 16 20 3 14 9 25 13 25 16
0 41 61 47 114 4 31 4 56 1 56 -3 0 -9 -21 -12 -47z"/>
<path d="M1188 2493 c6 -2 18 -2 25 0 6 3 1 5 -13 5 -14 0 -19 -2 -12 -5z"/>
<path d="M1630 2462 c0 -5 7 -9 15 -9 8 0 15 4 15 9 0 4 -7 8 -15 8 -8 0 -15
-4 -15 -8z"/>
<path d="M1622 2428 c-5 -7 -12 -24 -14 -38 -2 -14 -9 -24 -16 -22 -6 1 -12
-5 -12 -13 0 -19 2 -19 28 3 14 12 19 26 16 39 -3 11 0 24 7 29 9 5 10 2 6
-10 -5 -12 -3 -16 5 -14 19 7 22 38 5 38 -8 0 -19 -6 -25 -12z"/>
<path d="M1695 2360 c-3 -5 -1 -10 4 -10 6 0 11 5 11 10 0 6 -2 10 -4 10 -3 0
-8 -4 -11 -10z"/>
<path d="M1290 2341 c0 -6 4 -13 10 -16 6 -3 7 1 4 9 -7 18 -14 21 -14 7z"/>
<path d="M1651 2332 c-14 -26 -14 -42 -1 -42 11 0 25 48 17 56 -3 3 -10 -3
-16 -14z"/>
<path d="M1421 2306 c2 -2 15 -9 29 -15 24 -11 24 -11 6 3 -16 13 -49 24 -35
12z"/>
<path d="M1590 2250 c-8 -5 -10 -10 -5 -10 6 0 17 5 25 10 8 5 11 10 5 10 -5
0 -17 -5 -25 -10z"/>
<path d="M1800 2206 c0 -2 7 -7 16 -10 8 -3 12 -2 9 4 -6 10 -25 14 -25 6z"/>
<path d="M1890 2175 c0 -8 5 -15 10 -15 6 0 10 7 10 15 0 8 -4 15 -10 15 -5 0
-10 -7 -10 -15z"/>
<path d="M1966 2173 c4 -12 12 -28 20 -34 20 -17 17 2 -6 31 -18 24 -19 24
-14 3z"/>
<path d="M1885 2095 c-26 -30 -50 -53 -54 -50 -4 2 -7 -6 -6 -17 1 -12 7 -24
13 -26 7 -2 10 2 7 11 -4 8 13 33 41 61 26 25 43 46 39 46 -5 0 0 7 11 15 10
8 14 15 7 15 -6 0 -33 -25 -58 -55z"/>
<path d="M1875 2130 c-3 -5 -1 -10 4 -10 6 0 11 5 11 10 0 6 -2 10 -4 10 -3 0
-8 -4 -11 -10z"/>
<path d="M2023 2105 c-8 -23 0 -25 21 -4 18 17 18 19 2 19 -9 0 -19 -7 -23
-15z"/>
<path d="M1630 2045 c-11 -13 -10 -14 4 -9 9 3 16 10 16 15 0 13 -6 11 -20 -6z"/>
<path d="M2098 2013 c4 -20 7 -23 10 -10 2 10 13 17 28 17 14 0 22 4 19 10 -3
6 -19 10 -34 10 -25 0 -28 -3 -23 -27z"/>
<path d="M1695 1984 c-27 -24 -43 -44 -35 -44 18 1 70 45 70 60 0 10 21 14 50
10 21 -3 7 10 -16 14 -12 2 -38 -13 -69 -40z"/>
<path d="M1993 1960 c-3 -11 -10 -17 -16 -13 -6 3 -7 1 -3 -5 4 -7 3 -12 -2
-12 -6 0 -15 -13 -21 -30 -5 -16 -13 -30 -17 -30 -3 0 -3 8 1 18 5 14 4 15 -6
5 -10 -10 -10 -16 -1 -25 9 -9 18 -5 39 17 15 16 22 25 16 21 -22 -13 -14 9 8
22 12 7 18 16 15 19 -3 4 -1 12 5 20 9 10 8 13 -1 13 -6 0 -14 -9 -17 -20z"/>
<path d="M2111 1958 c-1 -16 47 -50 66 -47 22 4 25 -3 7 -16 -10 -8 -14 -15
-8 -15 17 0 50 28 41 36 -4 5 -18 9 -30 10 -38 3 -66 16 -70 33 -4 14 -5 14
-6 -1z"/>
<path d="M2144 1955 c26 -20 42 -19 22 0 -8 8 -21 15 -28 15 -8 -1 -6 -6 6
-15z"/>
<path d="M1795 1950 c-3 -5 1 -10 9 -10 9 0 16 5 16 10 0 6 -4 10 -9 10 -6 0
-13 -4 -16 -10z"/>
<path d="M2090 1946 c0 -8 4 -17 9 -20 5 -4 7 3 4 14 -6 23 -13 26 -13 6z"/>
<path d="M2225 1930 c3 -5 8 -10 11 -10 2 0 4 5 4 10 0 6 -5 10 -11 10 -5 0
-7 -4 -4 -10z"/>
<path d="M2080 1907 c0 -4 -6 -5 -12 -1 -9 5 -8 2 1 -10 11 -13 16 -14 23 -4
6 10 10 10 16 1 5 -8 12 -8 25 2 16 11 14 13 -18 17 -19 2 -35 0 -35 -5z"/>
<path d="M2343 1863 c1 -18 5 -33 10 -33 9 0 8 19 -3 45 -7 16 -8 14 -7 -12z"/>
<path d="M2378 1845 c2 -14 6 -25 8 -25 2 0 4 11 4 25 0 14 -4 25 -9 25 -4 0
-6 -11 -3 -25z"/>
<path d="M2283 1829 c-1 -10 2 -19 8 -19 11 0 12 27 1 34 -4 2 -9 -4 -9 -15z"/>
<path d="M347 1812 c-5 -7 -4 -19 2 -26 16 -19 50 -123 44 -130 -4 -3 -1 -6 5
-6 7 0 12 -8 12 -19 0 -10 7 -24 15 -31 8 -7 12 -17 8 -23 -3 -6 -1 -7 5 -3
10 6 18 -8 10 -16 -2 -2 7 -19 20 -39 12 -20 22 -44 22 -53 0 -16 -1 -16 -16
-2 -8 9 -18 16 -22 16 -13 0 34 -38 56 -45 26 -7 29 7 7 29 -9 8 -26 42 -38
76 -13 33 -26 58 -30 54 -3 -3 -5 2 -5 12 1 11 -8 39 -20 63 -12 25 -22 51
-22 58 0 7 -5 13 -11 13 -8 0 -9 11 -5 31 5 26 4 30 -8 20 -12 -10 -15 -8 -18
11 -2 16 -5 19 -11 10z"/>
<path d="M1838 1781 l-43 -42 37 21 c40 23 64 47 55 56 -3 3 -25 -13 -49 -35z"/>
<path d="M2416 1807 c3 -10 9 -15 12 -12 3 3 0 11 -7 18 -10 9 -11 8 -5 -6z"/>
<path d="M2340 1798 c0 -4 9 -8 20 -8 11 0 20 4 20 8 0 4 -9 8 -20 8 -11 0
-20 -4 -20 -8z"/>
<path d="M271 1784 c0 -11 3 -14 6 -6 3 7 2 16 -1 19 -3 4 -6 -2 -5 -13z"/>
<path d="M2273 1781 c0 -11 5 -17 9 -15 11 7 10 34 -1 34 -6 0 -9 -9 -8 -19z"/>
<path d="M1968 1783 c10 -4 9 -9 -4 -24 -21 -23 -12 -26 10 -3 17 16 13 35 -7
33 -8 0 -8 -2 1 -6z"/>
<path d="M2430 1761 c0 -6 4 -12 9 -15 5 -3 7 -16 4 -29 -3 -18 -2 -19 6 -6
11 17 4 59 -10 59 -5 0 -9 -4 -9 -9z"/>
<path d="M260 1740 c0 -11 -4 -20 -9 -20 -4 0 -6 -10 -4 -22 2 -13 -14 -81
-36 -153 -21 -71 -38 -132 -36 -134 13 -12 27 25 53 137 35 146 46 212 38 212
-3 0 -6 -9 -6 -20z"/>
<path d="M1880 1740 c-16 -12 -35 -17 -55 -14 -27 3 -28 3 -5 -5 20 -7 22 -10
9 -15 -9 -4 -20 -6 -25 -4 -5 2 -9 -1 -9 -7 0 -5 7 -9 15 -7 8 2 23 4 32 5 9
1 15 4 12 8 -2 4 4 10 15 14 20 6 60 45 45 45 -5 0 -20 -9 -34 -20z"/>
<path d="M2210 1749 c0 -5 5 -7 10 -4 6 3 10 8 10 11 0 2 -4 4 -10 4 -5 0 -10
-5 -10 -11z"/>
<path d="M490 1741 c0 -13 56 -71 69 -71 6 0 11 -4 11 -10 0 -12 52 -61 59
-54 2 2 -21 29 -52 59 -31 31 -57 59 -57 64 0 5 -7 11 -15 15 -8 3 -15 1 -15
-3z"/>
<path d="M2284 1723 c-3 -10 -10 -28 -15 -41 -5 -13 -7 -27 -4 -32 3 -5 0 -12
-6 -16 -8 -5 -10 -2 -5 7 4 8 1 6 -8 -4 -8 -11 -12 -26 -9 -35 4 -10 2 -13 -5
-8 -7 4 -12 2 -12 -3 0 -6 -4 -11 -10 -11 -5 0 -7 8 -4 18 5 14 3 14 -11 -3
-15 -19 -15 -20 4 -23 17 -3 19 -7 11 -23 -7 -13 -7 -19 0 -19 5 0 10 -10 10
-22 -1 -21 -2 -21 -13 -7 -11 15 -15 13 -36 -19 -19 -28 -22 -44 -18 -85 2
-27 9 -52 14 -56 6 -3 13 -16 17 -27 4 -12 21 -32 39 -44 18 -12 52 -53 76
-91 25 -37 50 -67 55 -66 6 1 10 -4 8 -12 -2 -8 10 -30 26 -50 40 -51 50 -70
23 -46 -13 11 -44 48 -69 82 -25 35 -54 65 -64 69 -10 3 -18 11 -18 19 0 7 -7
15 -15 18 -8 4 -21 21 -29 39 -9 18 -32 55 -51 82 -20 27 -33 56 -31 63 3 8 1
11 -4 8 -6 -3 -10 -1 -10 5 0 6 -5 8 -12 4 -7 -4 -8 -3 -4 4 4 7 3 12 -3 12
-5 0 -1 25 10 58 31 90 40 106 74 132 19 14 29 28 23 31 -6 4 0 14 15 24 29
18 45 47 21 38 -7 -3 -14 0 -14 6 0 6 5 11 11 11 5 0 7 5 4 10 -9 15 -25 12
-25 -5 0 -8 -4 -15 -8 -15 -5 0 -13 -12 -20 -27 l-12 -28 4 30 c4 27 3 28 -9
11 -8 -10 -12 -23 -9 -30 5 -13 -97 -219 -124 -250 -10 -11 -12 -16 -5 -13 15
9 73 -50 127 -131 24 -37 71 -94 103 -127 99 -103 142 -153 137 -157 -2 -3 7
-11 21 -18 14 -7 25 -17 25 -21 0 -4 6 -14 13 -21 8 -7 19 -27 25 -43 6 -18
11 -23 11 -12 1 10 -16 50 -36 90 -49 94 -49 95 -28 77 11 -9 16 -10 11 -2
-14 23 15 12 43 -16 25 -24 32 -26 71 -20 23 4 56 6 74 4 30 -4 56 8 56 25 0
5 -7 6 -15 3 -8 -4 -17 1 -21 10 -9 23 -27 20 -19 -3 3 -11 1 -22 -5 -26 -6
-4 -10 5 -10 21 l0 27 -26 -27 c-28 -28 -49 -33 -60 -15 -5 8 -9 8 -14 -1 -4
-7 -7 0 -7 16 0 16 2 23 4 17 3 -7 9 -13 14 -13 6 0 7 5 3 12 -5 8 -2 9 10 5
10 -4 15 -3 11 3 -3 6 -2 10 4 10 5 0 13 -5 16 -10 9 -15 25 -2 18 15 -3 11
-1 13 10 10 10 -5 16 3 21 28 7 35 28 53 48 40 7 -3 8 -1 4 5 -5 8 1 12 14 12
12 0 18 4 15 10 -4 6 1 7 11 3 12 -4 15 -2 12 8 -3 8 -9 14 -14 14 -39 3 -49
16 -50 67 -1 39 0 46 6 28 5 -17 8 -19 9 -7 1 9 5 17 10 17 4 0 6 11 3 25 -2
14 -8 22 -13 19 -5 -3 -7 -10 -3 -15 4 -6 -10 -9 -35 -7 -23 2 -40 8 -39 13 1
6 8 9 15 7 7 -2 13 4 13 13 0 8 -5 15 -11 15 -6 0 -8 7 -5 15 6 16 -8 47 -32
73 -10 12 -17 11 -44 -5 -34 -20 -52 -64 -41 -98 6 -19 7 -18 15 5 6 21 7 20
3 -7 -4 -26 -1 -33 13 -34 9 0 12 -3 5 -5 -7 -3 -9 -12 -6 -20 3 -8 0 -14 -6
-14 -6 0 -11 8 -11 17 0 9 -6 24 -14 32 -19 22 -28 124 -9 117 7 -3 13 -1 13
4 0 6 -5 10 -12 10 -6 0 -8 3 -5 6 4 4 14 1 24 -7 15 -12 16 -12 10 3 -4 13
-1 17 11 16 32 -2 52 2 52 12 0 5 -7 6 -17 3 -11 -4 -14 -3 -9 5 5 8 1 10 -11
5 -16 -6 -17 -5 -3 13 9 12 9 15 1 7 -7 -6 -19 -9 -26 -7 -7 3 -16 1 -20 -5
-4 -7 0 -8 11 -4 12 4 15 2 12 -8 -2 -8 -15 -16 -27 -17 -15 -2 -21 0 -17 7 4
6 2 11 -3 11 -6 0 -11 -11 -11 -25 0 -14 -5 -25 -11 -25 -6 0 -9 -9 -6 -20 3
-11 1 -18 -4 -14 -5 3 -9 1 -9 -5 0 -5 5 -11 11 -13 6 -2 8 -14 4 -31 -9 -33
-29 -31 -32 4 l-2 24 9 -25 c8 -20 9 -17 5 17 -3 23 -8 49 -11 58 -4 9 -2 15
5 13 7 -2 19 17 28 41 12 35 12 45 2 52 -9 5 -10 11 -2 21 5 7 9 31 9 53 -1
26 3 44 13 52 14 10 14 14 2 25 -12 11 -13 10 -8 -4 3 -9 0 -19 -7 -21 -9 -4
-13 -19 -11 -39 1 -18 -4 -43 -11 -55 -9 -14 -10 -24 -4 -28 6 -3 10 -14 10
-23 0 -13 -3 -12 -16 6 -8 12 -26 22 -40 22 -13 0 -23 3 -21 8 1 4 -2 8 -8 10
-5 2 -11 -1 -13 -6 -4 -13 55 -55 67 -48 14 9 21 -20 8 -33 -12 -12 -28 -15
-25 -3 2 4 -17 27 -42 52 -27 27 -38 35 -28 19 18 -29 13 -46 -8 -28 -17 14
-34 3 -34 -20 0 -18 33 -55 41 -47 2 2 10 -2 17 -10 11 -12 10 -14 -5 -14 -24
0 -38 10 -52 39 l-13 23 -14 -23 c-7 -13 -17 -32 -20 -41 -3 -10 -13 -18 -20
-18 -20 0 -17 -24 6 -45 11 -10 20 -13 20 -7 0 6 -4 14 -10 17 -5 3 -10 11
-10 17 0 6 9 3 20 -7 18 -17 20 -17 14 -2 -3 10 -1 17 5 17 19 0 12 -39 -8
-50 -16 -8 -24 -4 -45 21 -35 41 -33 55 14 76 l25 11 -28 -1 c-15 -1 -32 -9
-37 -17 -15 -23 -12 -6 4 25 8 14 17 22 20 17 3 -5 14 -12 25 -15 14 -3 19 1
19 20 0 15 11 35 27 49 16 13 23 24 17 24 -6 0 -14 -5 -17 -10 -4 -6 -11 -8
-16 -5 -15 10 -10 44 10 64 11 11 17 22 14 25 -3 3 2 17 11 30 18 28 22 50 5
26 -8 -12 -10 -9 -6 13 5 30 -1 36 -9 10z m-34 -175 c0 -7 -5 -20 -10 -28 -8
-12 -10 -9 -10 13 0 15 5 27 10 27 6 0 10 -6 10 -12z m65 -28 c3 -5 12 -7 20
-3 16 6 21 -12 6 -21 -13 -8 -45 6 -48 22 -3 14 13 16 22 2z m66 -47 c22 -25
22 -26 2 -9 -18 14 -23 16 -23 5 0 -12 -2 -12 -9 1 -8 12 -6 30 3 30 1 0 13
-12 27 -27z m-58 -60 c11 -19 27 -16 28 5 0 15 1 14 8 -2 7 -19 8 -18 15 5 7
22 9 22 13 4 3 -10 0 -21 -6 -23 -6 -2 -11 -13 -12 -25 -1 -20 -2 -20 -9 3 -6
18 -8 20 -9 7 -1 -21 -27 -51 -35 -39 -2 4 -1 14 5 22 12 21 11 27 -6 27 -8 0
-15 -9 -15 -19 0 -10 -4 -18 -10 -18 -12 0 -12 3 -1 33 6 14 6 29 0 38 -6 10
-9 10 -9 2 0 -7 -7 -13 -15 -13 -15 0 -21 21 -8 33 8 8 54 -20 66 -40z m265 7
c4 -12 2 -13 -9 -2 -19 18 -33 15 -14 -4 9 -9 13 -19 9 -23 -4 -3 -9 0 -11 7
-3 6 -11 12 -19 12 -15 0 -19 12 -7 24 12 11 46 2 51 -14z m-421 -12 c-3 -8
-6 -5 -6 6 -1 11 2 17 5 13 3 -3 4 -12 1 -19z m29 -44 c32 -21 71 -92 45 -82
-11 4 -83 98 -76 98 3 0 17 -7 31 -16z m374 -2 c0 -12 2 -12 17 -1 15 13 15
12 4 -9 -7 -12 -10 -30 -7 -40 12 -38 -106 -84 -120 -47 -8 19 -34 20 -34 1 0
-15 57 -42 80 -37 8 1 27 12 43 23 15 11 31 17 35 14 3 -4 0 -11 -7 -16 -12
-7 -12 -9 0 -12 8 -3 1 -3 -15 0 -19 3 -26 1 -22 -7 13 -20 64 -13 77 10 8 17
8 20 -1 14 -13 -8 -32 14 -24 27 3 4 17 8 31 8 20 0 24 -4 18 -17 -4 -10 -9
-27 -12 -38 -4 -20 -4 -20 11 -1 9 11 16 15 16 9 0 -7 -5 -15 -10 -18 -6 -4
-7 -11 -4 -17 4 -6 -1 -8 -14 -4 -14 5 -24 1 -31 -11 -6 -10 -11 -13 -11 -6 0
6 -8 11 -17 11 -10 0 -27 3 -38 7 -15 6 -14 4 5 -12 14 -11 35 -25 48 -32 17
-9 22 -21 22 -48 0 -20 -3 -33 -7 -30 -3 4 -6 21 -5 39 0 21 -2 28 -8 19 -7
-12 -9 -12 -13 0 -2 8 -2 3 0 -9 2 -13 -2 -31 -9 -40 -12 -15 -11 -16 5 -3 12
9 17 10 17 2 0 -12 -58 -38 -74 -33 -5 2 -12 -2 -16 -9 -4 -6 -13 -8 -19 -5
-18 11 -13 26 7 20 14 -5 14 -3 -2 10 -16 13 -18 21 -10 44 7 21 16 27 43 29
31 1 32 0 16 -17 -9 -10 -14 -24 -10 -29 3 -6 1 -11 -6 -11 -6 0 -9 8 -6 20 3
13 0 20 -10 20 -8 0 -12 -4 -9 -9 4 -5 0 -11 -6 -14 -9 -3 -7 -10 7 -21 26
-20 50 -16 51 9 1 11 4 30 8 41 5 17 -1 28 -31 52 -21 16 -48 33 -61 37 -41
12 -83 105 -48 105 9 0 12 -7 9 -21 -5 -18 -3 -20 14 -15 12 4 25 1 31 -7 16
-19 69 -20 76 -2 3 8 13 15 22 15 15 0 14 2 -3 18 -11 9 -18 23 -16 30 3 6 0
12 -6 12 -6 0 -11 4 -11 9 0 6 9 9 20 8 11 -1 20 -8 20 -15z m-176 -19 c-17
-37 -10 -77 17 -100 15 -13 32 -23 39 -23 6 0 8 -4 5 -10 -3 -5 0 -7 8 -4 15
5 47 -20 47 -37 0 -13 -12 -11 -34 6 -28 21 -43 19 -19 -3 18 -15 19 -20 8
-36 -8 -10 -11 -24 -8 -32 3 -8 -1 -14 -8 -14 -11 0 -11 -2 0 -9 12 -8 12 -11
0 -23 -23 -21 -43 -19 -62 7 -10 14 -14 25 -8 25 5 0 8 6 7 14 -3 20 -26 46
-42 46 -8 0 -14 6 -14 14 0 8 -8 17 -17 20 -15 6 -15 8 -3 16 10 6 11 10 3 10
-13 0 -53 39 -53 52 0 4 5 8 10 8 6 0 10 -7 10 -15 0 -8 4 -15 8 -15 5 0 30
-21 56 -46 48 -48 67 -53 45 -13 -9 17 -9 24 0 27 20 7 12 29 -16 46 l-28 17
24 -21 c21 -18 22 -23 10 -31 -21 -13 -26 -11 -32 12 -3 12 -10 18 -16 14 -16
-9 -62 41 -55 60 6 14 8 14 25 -1 19 -17 21 -16 57 24 38 41 51 47 36 15z
m-39 -6 c-8 -20 -47 -30 -57 -14 -13 21 -9 28 11 18 14 -8 22 -7 31 4 15 18
23 14 15 -8z m-75 -2 c0 -8 -5 -17 -12 -21 -7 -5 -9 -2 -5 9 4 11 2 14 -9 10
-7 -3 -14 -1 -14 4 0 5 9 9 20 10 11 1 20 -4 20 -12z m200 -14 c5 -11 10 -25
10 -32 0 -18 -27 7 -33 31 -7 26 9 26 23 1z m156 -142 c4 -8 9 -8 17 0 6 6 15
11 21 11 5 0 0 -9 -12 -21 -20 -18 -24 -18 -37 -5 -8 8 -15 17 -15 20 0 10 19
6 26 -5z"/>
<path d="M2400 1181 c0 -5 9 -12 19 -16 12 -4 18 -12 14 -21 -6 -15 12 -20 22
-5 3 5 -8 19 -25 31 -16 12 -30 17 -30 11z"/>
<path d="M2403 1143 c-7 -3 -13 -9 -13 -14 0 -6 5 -7 10 -4 6 3 10 1 10 -4 0
-6 -4 -11 -8 -11 -5 0 -9 -7 -9 -15 0 -8 4 -15 9 -15 4 0 8 -7 8 -15 0 -8 6
-12 14 -9 24 9 3 95 -21 87z"/>
<path d="M2320 1729 c0 -15 18 -19 23 -6 3 8 -1 14 -9 14 -8 0 -14 -4 -14 -8z"/>
<path d="M2400 1722 c0 -7 -11 -12 -24 -12 -28 0 -43 -17 -29 -31 14 -14 52
-19 58 -8 4 5 -8 9 -26 9 -38 0 -34 9 7 14 27 4 29 1 30 -30 0 -21 -4 -34 -12
-34 -7 0 -15 -6 -17 -12 -4 -10 -6 -10 -6 0 -1 9 -8 9 -32 -3 -17 -9 -28 -19
-25 -22 3 -3 12 0 21 7 8 7 15 8 15 4 0 -5 10 -15 23 -23 20 -13 21 -13 8 3
-13 16 -12 17 12 11 17 -5 27 -3 27 4 0 6 -8 8 -17 4 -14 -5 -14 -2 4 15 18
18 20 27 13 58 -9 37 -30 70 -30 46z"/>
<path d="M1743 1693 c9 -2 15 -9 12 -14 -4 -5 -1 -9 4 -9 8 0 8 -6 0 -18 -8
-12 -9 -25 -2 -35 8 -16 11 -16 28 -2 13 10 15 13 4 10 -9 -4 -16 0 -16 9 0 8
6 12 13 9 19 -7 10 25 -12 42 -10 8 -26 14 -34 14 -10 -1 -10 -3 3 -6z"/>
<path d="M680 1680 c-9 -6 -10 -10 -3 -10 6 0 15 5 18 10 8 12 4 12 -15 0z"/>
<path d="M733 1646 c2 -31 -17 -39 -21 -8 -2 12 -7 22 -11 22 -13 0 0 -51 15
-57 7 -2 11 -10 8 -17 -3 -7 1 -13 9 -13 9 0 12 8 9 24 -2 13 0 23 6 23 17 0
21 -50 5 -59 -13 -7 -13 -9 1 -14 10 -4 15 -3 11 3 -6 9 8 14 28 11 4 0 7 8 7
19 0 20 0 20 20 0 21 -21 70 -27 70 -9 0 6 -8 9 -18 7 -20 -6 -60 18 -49 28 4
4 13 1 22 -6 18 -15 20 -13 29 17 4 12 2 24 -3 28 -6 3 -8 0 -5 -8 3 -8 -2
-17 -12 -21 -11 -4 -15 -2 -11 8 6 14 -21 32 -31 21 -3 -3 0 -5 6 -5 7 0 12
-5 12 -11 0 -5 -4 -7 -10 -4 -5 3 -10 2 -10 -3 0 -5 -9 -12 -20 -15 -10 -3
-18 -2 -17 2 1 3 -8 19 -20 34 l-22 28 2 -25z"/>
<path d="M2315 1649 c-10 -30 -2 -32 12 -3 6 13 7 24 3 24 -5 0 -12 -9 -15
-21z"/>
<path d="M1150 1650 c-12 -7 -10 -9 7 -7 12 0 19 5 17 9 -6 10 -6 10 -24 -2z"/>
<path d="M1837 1653 c-10 -9 -9 -33 1 -33 4 0 8 9 8 20 0 23 0 22 -9 13z"/>
<path d="M2345 1651 c-12 -11 -3 -18 20 -13 14 2 25 7 25 11 0 7 -38 9 -45 2z"/>
<path d="M780 1635 c7 -9 15 -13 17 -11 7 7 -7 26 -19 26 -6 0 -6 -6 2 -15z"/>
<path d="M887 1619 c-5 -16 -1 -28 9 -36 9 -6 13 -16 9 -22 -3 -6 -2 -11 4
-11 5 0 12 3 14 8 4 8 -17 53 -24 49 -2 -1 2 4 10 11 19 16 37 16 23 -1 -7 -8
-6 -18 4 -32 15 -19 15 -19 9 8 -8 28 -4 31 33 21 14 -4 21 -12 18 -20 -3 -7
0 -11 7 -9 7 3 19 0 27 -6 13 -9 13 -11 1 -16 -10 -4 -6 -9 13 -17 l27 -11
-22 -13 c-19 -12 -21 -12 -16 2 4 9 2 16 -3 16 -6 0 -10 -4 -10 -10 0 -5 -5
-10 -11 -10 -6 0 -8 7 -5 16 4 10 2 13 -6 8 -7 -5 -9 -2 -5 9 4 11 2 14 -9 10
-13 -5 -13 -8 1 -29 8 -13 11 -24 5 -24 -5 0 -10 5 -10 10 0 6 -5 10 -11 10
-6 0 -9 -6 -6 -13 4 -10 -3 -13 -24 -12 -15 1 -26 -2 -23 -7 7 -11 74 -8 90 4
6 5 24 4 38 -2 35 -13 56 -13 34 1 -16 9 -16 11 0 29 18 22 32 26 32 9 0 -5
-4 -7 -10 -4 -11 7 -12 0 -4 -32 4 -14 14 -23 28 -23 50 -1 76 -5 76 -12 0 -5
3 -7 8 -6 4 1 18 -4 31 -11 13 -7 33 -14 45 -16 11 -1 34 -6 50 -10 19 -5 27
-4 23 2 -4 6 -24 13 -46 17 -58 9 -99 36 -112 74 -6 17 -15 32 -20 32 -5 0 -3
-13 6 -29 9 -19 11 -32 5 -36 -9 -6 -14 0 -12 16 1 4 -8 15 -18 24 -22 20 -28
7 -7 -14 8 -10 8 -12 0 -7 -6 3 -14 2 -18 -4 -3 -5 -12 -10 -18 -10 -8 0 -8 3
2 9 8 5 11 16 6 30 -4 12 -2 22 4 22 6 1 16 2 23 3 6 0 13 7 16 14 3 11 0 12
-14 4 -11 -5 -36 -12 -56 -16 -32 -6 -38 -4 -38 11 0 20 -80 61 -135 70 -27 4
-33 2 -38 -18z"/>
<path d="M1437 1613 c-3 -5 -2 -35 3 -68 7 -60 7 -60 10 -15 1 25 5 36 7 25 6
-21 33 -65 33 -53 0 4 -5 19 -12 34 -11 23 -10 28 7 40 10 8 14 14 8 14 -7 0
-15 -5 -18 -10 -7 -12 -25 -4 -25 11 0 6 5 7 10 4 6 -3 10 1 10 9 0 16 -25 22
-33 9z"/>
<path d="M2273 1601 c-10 -16 -9 -18 7 -14 11 3 16 11 13 19 -7 18 -6 18 -20
-5z"/>
<path d="M1198 1603 c7 -3 16 -2 19 1 4 3 -2 6 -13 5 -11 0 -14 -3 -6 -6z"/>
<path d="M1266 1597 c3 -10 9 -15 12 -12 3 3 0 11 -7 18 -10 9 -11 8 -5 -6z"/>
<path d="M1356 1594 c-5 -14 -4 -15 9 -4 17 14 19 20 6 20 -5 0 -12 -7 -15
-16z"/>
<path d="M1510 1600 c0 -5 5 -10 11 -10 5 0 7 5 4 10 -3 6 -8 10 -11 10 -2 0
-4 -4 -4 -10z"/>
<path d="M635 1590 c-3 -5 1 -10 10 -10 9 0 13 5 10 10 -3 6 -8 10 -10 10 -2
0 -7 -4 -10 -10z"/>
<path d="M686 1585 c-3 -8 -13 -15 -23 -16 -14 0 -13 -2 5 -9 12 -5 22 -14 22
-20 0 -6 -6 -8 -12 -4 -8 5 -8 1 2 -12 22 -29 24 -30 17 -12 -3 10 -2 20 3 23
6 4 10 -3 10 -14 0 -12 7 -21 15 -21 8 0 15 -5 15 -11 0 -5 -4 -7 -10 -4 -5 3
-10 1 -10 -5 0 -6 -5 -8 -11 -5 -6 4 -9 0 -7 -11 4 -24 29 -35 46 -21 29 23
283 -18 497 -82 100 -30 205 -26 205 7 0 13 -3 13 -12 4 -15 -15 -38 -16 -38
-1 0 5 5 7 12 3 7 -4 8 -3 4 4 -11 19 -39 15 -32 -4 4 -11 2 -15 -8 -11 -7 3
-18 1 -24 -5 -12 -12 -75 9 -67 22 6 10 -22 17 -67 16 -21 -1 -38 2 -38 6 0 4
8 8 18 8 14 0 14 2 3 9 -10 7 -18 5 -25 -5 -12 -15 -56 -9 -56 8 0 5 5 6 12 2
6 -4 8 -3 5 3 -4 6 -17 8 -31 6 -13 -3 -59 3 -102 12 -112 24 -195 32 -235 23
-8 -2 -17 12 -23 35 -5 20 -16 37 -23 37 -8 0 -11 4 -8 10 3 6 -1 7 -9 4 -11
-4 -16 0 -16 11 0 9 4 13 10 10 6 -3 7 1 4 9 -8 20 -10 20 -18 1z m54 -119 c0
-3 -4 -8 -10 -11 -5 -3 -10 -1 -10 4 0 6 5 11 10 11 6 0 10 -2 10 -4z"/>
<path d="M1565 1590 c-3 -5 1 -10 9 -10 9 0 16 5 16 10 0 6 -4 10 -9 10 -6 0
-13 -4 -16 -10z"/>
<path d="M1110 1580 c0 -5 5 -10 11 -10 5 0 7 5 4 10 -3 6 -8 10 -11 10 -2 0
-4 -4 -4 -10z"/>
<path d="M1190 1570 c-9 -6 -10 -10 -3 -10 6 0 15 5 18 10 8 12 4 12 -15 0z"/>
<path d="M1533 1563 c14 -14 19 -15 29 -4 10 11 10 12 1 7 -7 -4 -13 -2 -13 3
0 6 -8 11 -17 11 -16 0 -16 -1 0 -17z"/>
<path d="M1250 1560 c-12 -8 -10 -10 8 -10 13 0 20 4 17 10 -7 12 -6 12 -25 0z"/>
<path d="M1495 1560 c-8 -13 4 -32 15 -25 12 8 41 -6 34 -16 -3 -5 0 -9 5 -9
16 0 13 15 -7 33 -15 13 -21 14 -32 4 -10 -10 -12 -9 -7 6 7 19 2 23 -8 7z"/>
<path d="M614 1546 c-3 -8 -4 -27 -2 -43 3 -23 5 -20 9 15 5 43 2 53 -7 28z"/>
<path d="M807 1554 c-14 -14 -7 -25 16 -24 38 4 48 0 42 -12 -4 -7 1 -4 9 6 9
11 16 15 16 9 0 -7 9 -11 20 -10 30 2 7 18 -31 22 -19 1 -41 6 -50 9 -8 4 -18
3 -22 0z"/>
<path d="M935 1550 c-3 -5 1 -10 9 -10 9 0 16 5 16 10 0 6 -4 10 -9 10 -6 0
-13 -4 -16 -10z"/>
<path d="M567 1533 c-10 -9 -9 -33 1 -33 4 0 8 9 8 20 0 23 0 22 -9 13z"/>
<path d="M591 1524 c0 -11 3 -14 6 -6 3 7 2 16 -1 19 -3 4 -6 -2 -5 -13z"/>
<path d="M1210 1521 c0 -5 7 -11 15 -15 8 -3 15 -1 15 3 0 5 -7 11 -15 15 -8
3 -15 1 -15 -3z"/>
<path d="M2153 1518 c-4 -7 -8 -19 -10 -27 -1 -8 -5 -17 -10 -20 -4 -3 -9 -19
-11 -36 -2 -25 1 -22 17 18 11 27 25 55 31 63 8 9 9 14 2 14 -6 0 -14 -6 -19
-12z"/>
<path d="M164 1486 c-6 -13 -8 -29 -5 -35 4 -5 11 6 17 25 13 39 4 46 -12 10z"/>
<path d="M657 1454 c6 -15 23 -19 23 -5 0 5 -7 11 -14 14 -10 4 -13 1 -9 -9z"/>
<path d="M1310 1460 c0 -6 7 -10 15 -10 8 0 15 2 15 4 0 2 -7 6 -15 10 -8 3
-15 1 -15 -4z"/>
<path d="M1382 1453 c-6 -2 -10 -9 -7 -13 3 -5 12 -7 20 -3 8 3 15 0 15 -6 0
-6 5 -11 10 -11 7 0 7 6 0 20 -11 20 -16 22 -38 13z"/>
<path d="M1145 1440 c4 -6 11 -8 16 -5 14 9 11 15 -7 15 -8 0 -12 -5 -9 -10z"/>
<path d="M578 1423 c7 -3 16 -2 19 1 4 3 -2 6 -13 5 -11 0 -14 -3 -6 -6z"/>
<path d="M1355 1390 c-3 -5 -1 -10 4 -10 6 0 11 5 11 10 0 6 -2 10 -4 10 -3 0
-8 -4 -11 -10z"/>
<path d="M1318 1383 c7 -3 16 -2 19 1 4 3 -2 6 -13 5 -11 0 -14 -3 -6 -6z"/>
<path d="M2033 1364 c-15 -16 -16 -24 -4 -24 8 0 24 30 19 35 -2 2 -9 -3 -15
-11z"/>
<path d="M820 1352 c0 -12 19 -26 26 -19 2 2 -2 10 -11 17 -9 8 -15 8 -15 2z"/>
<path d="M1970 1325 c-22 -23 -22 -25 -4 -25 10 0 28 8 39 16 19 16 19 16 -5
10 -24 -7 -24 -6 -6 8 11 9 15 16 10 16 -6 0 -21 -11 -34 -25z"/>
<path d="M2011 1300 l-34 -30 26 0 c14 0 29 5 32 10 3 6 21 8 38 5 26 -4 29
-3 14 6 -10 6 -14 15 -10 22 4 7 -2 5 -12 -3 -17 -14 -18 -13 -12 3 9 25 -3
21 -42 -13z"/>
<path d="M695 1300 c3 -5 8 -10 11 -10 2 0 4 5 4 10 0 6 -5 10 -11 10 -5 0 -7
-4 -4 -10z"/>
<path d="M1619 1278 c-17 -24 -18 -29 -6 -19 18 14 42 51 33 51 -3 0 -15 -15
-27 -32z"/>
<path d="M1100 1289 c0 -5 5 -7 10 -4 6 3 10 8 10 11 0 2 -4 4 -10 4 -5 0 -10
-5 -10 -11z"/>
<path d="M890 1277 c31 -19 126 -34 117 -20 -4 6 -28 13 -54 15 -27 3 -57 9
-68 12 -13 5 -11 2 5 -7z"/>
<path d="M313 1266 c5 -12 0 -16 -16 -18 -12 0 -29 -1 -37 -2 -8 -1 -14 -6
-12 -11 2 -12 5 -12 55 -1 38 9 49 34 18 44 -10 3 -12 0 -8 -12z"/>
<path d="M448 1263 c7 -3 16 -2 19 1 4 3 -2 6 -13 5 -11 0 -14 -3 -6 -6z"/>
<path d="M1244 1259 c-3 -6 -2 -15 3 -20 5 -5 9 -1 10 11 2 22 -2 25 -13 9z"/>
<path d="M660 1220 c0 -5 5 -10 11 -10 5 0 7 5 4 10 -3 6 -8 10 -11 10 -2 0
-4 -4 -4 -10z"/>
<path d="M730 1220 c19 -13 30 -13 30 0 0 6 -10 10 -22 10 -19 0 -20 -2 -8
-10z"/>
<path d="M1345 1210 c-3 -5 1 -10 9 -10 8 0 18 5 21 10 3 6 -1 10 -9 10 -8 0
-18 -4 -21 -10z"/>
<path d="M1972 1187 c-14 -36 -11 -41 17 -32 24 7 26 22 8 47 -12 15 -14 13
-25 -15z m23 -18 c-10 -15 -25 -10 -19 6 4 8 10 12 15 9 5 -3 7 -10 4 -15z"/>
<path d="M570 1163 c0 -1 9 -7 19 -12 14 -8 22 -7 30 3 9 10 5 13 -19 12 -16
-1 -30 -2 -30 -3z"/>
<path d="M1850 1132 c0 -5 7 -13 16 -16 10 -4 14 -1 12 6 -5 15 -28 23 -28 10z"/>
<path d="M1957 1128 c-6 -4 -8 -10 -4 -15 5 -4 12 -1 16 6 7 10 10 10 16 1 4
-6 2 -17 -5 -23 -10 -9 -11 -9 -6 0 5 9 2 11 -8 7 -13 -5 -13 -8 -1 -20 18
-18 23 -18 27 3 3 14 8 12 31 -11 16 -15 31 -26 34 -22 6 6 -37 45 -50 46 -5
0 -5 5 -2 11 5 7 15 5 30 -5 14 -9 26 -12 30 -6 3 5 12 7 20 3 8 -3 15 0 15 6
0 14 -27 15 -35 1 -4 -6 -11 -5 -19 3 -12 10 -11 13 3 18 9 3 -6 6 -32 5 -27
-1 -54 -4 -60 -8z"/>
<path d="M2116 1115 c-3 -9 0 -15 9 -15 8 0 15 7 15 15 0 8 -4 15 -9 15 -5 0
-11 -7 -15 -15z"/>
<path d="M2200 1090 c-8 -16 -8 -20 3 -20 18 0 39 24 30 33 -11 12 -22 8 -33
-13z"/>
<path d="M2250 1100 c0 -5 5 -10 11 -10 5 0 7 5 4 10 -3 6 -8 10 -11 10 -2 0
-4 -4 -4 -10z"/>
<path d="M1815 1089 c-4 -6 -5 -12 -2 -15 2 -3 7 2 10 11 7 17 1 20 -8 4z"/>
<path d="M1835 1080 c-3 -5 -1 -10 4 -10 6 0 11 5 11 10 0 6 -2 10 -4 10 -3 0
-8 -4 -11 -10z"/>
<path d="M1760 1064 c-17 -9 -20 -14 -9 -14 9 0 22 7 29 15 15 18 13 18 -20
-1z"/>
<path d="M2243 1075 c4 -5 0 -16 -9 -26 -16 -17 -15 -18 15 -14 40 5 39 -6 -1
-30 -28 -16 -31 -16 -19 -2 7 9 10 17 5 17 -12 0 -41 -20 -30 -20 5 0 3 -6 -3
-14 -24 -28 14 -22 61 10 39 27 45 34 33 44 -8 6 -18 9 -23 6 -6 -3 -9 2 -8
11 0 9 -6 18 -14 21 -8 3 -12 1 -7 -3z"/>
<path d="M1986 1034 c-4 -9 -4 -19 -1 -22 3 -3 5 0 5 6 0 7 3 11 8 10 4 -2 8
1 10 7 6 17 -15 16 -22 -1z"/>
<path d="M1708 1035 c-11 -11 3 -35 21 -35 10 0 12 3 5 8 -6 4 -13 13 -15 20
-3 7 -7 10 -11 7z"/>
<path d="M1774 1027 c3 -10 6 -21 6 -23 0 -9 29 -3 36 8 5 8 2 9 -9 5 -10 -4
-21 1 -27 11 -11 16 -11 15 -6 -1z"/>
<path d="M1835 1019 c-4 -6 -5 -12 -2 -15 2 -3 7 2 10 11 7 17 1 20 -8 4z"/>
<path d="M1650 1010 c0 -4 7 -11 16 -14 8 -3 13 -10 10 -14 -3 -5 1 -9 9 -9
17 0 20 13 5 22 -6 4 -8 10 -6 14 3 4 -4 8 -15 8 -10 1 -19 -2 -19 -7z"/>
<path d="M1924 988 l-19 -23 23 19 c21 18 27 26 19 26 -2 0 -12 -10 -23 -22z"/>
<path d="M2120 999 c0 -5 9 -9 20 -9 11 0 20 2 20 4 0 2 -9 6 -20 9 -11 3 -20
1 -20 -4z"/>
<path d="M2299 1002 c-1 -4 -1 -11 0 -16 1 -5 -5 -6 -14 -2 -10 3 -14 2 -10
-5 4 -6 1 -9 -7 -7 -16 4 -68 -35 -68 -52 0 -6 5 -8 12 -4 6 4 21 8 32 10 12
1 30 6 41 10 16 6 15 3 -5 -14 -18 -15 -21 -21 -9 -22 8 0 29 14 46 30 17 17
34 26 37 21 8 -12 -39 -49 -71 -57 -13 -4 -23 -14 -23 -23 0 -9 -5 -22 -12
-29 -9 -9 -9 -12 3 -12 12 0 12 -2 -1 -10 -12 -7 -12 -12 -3 -21 10 -10 14 -8
19 7 8 24 92 104 106 101 6 -1 13 4 15 11 3 7 -3 12 -14 12 -15 0 -16 2 -3 10
8 5 10 10 4 10 -6 0 -16 11 -24 24 -12 23 -49 42 -51 28z m31 -37 c-7 -8 -24
-15 -39 -15 l-26 1 25 14 c35 20 57 20 40 0z m-70 -25 c0 -5 -2 -10 -4 -10 -3
0 -8 5 -11 10 -3 6 -1 10 4 10 6 0 11 -4 11 -10z m37 -67 c-9 -9 -20 -13 -24
-9 -4 4 -1 11 7 16 25 16 35 11 17 -7z"/>
<path d="M1500 980 c-13 -8 -13 -10 2 -10 9 0 20 5 23 10 8 13 -5 13 -25 0z"/>
<path d="M1841 974 c0 -11 3 -14 6 -6 3 7 2 16 -1 19 -3 4 -6 -2 -5 -13z"/>
<path d="M1760 970 c0 -5 5 -10 11 -10 5 0 7 5 4 10 -3 6 -8 10 -11 10 -2 0
-4 -4 -4 -10z"/>
<path d="M1880 959 c0 -5 5 -7 10 -4 6 3 10 8 10 11 0 2 -4 4 -10 4 -5 0 -10
-5 -10 -11z"/>
<path d="M1686 936 c4 -10 13 -15 22 -11 12 4 13 3 2 -10 -10 -12 -10 -15 4
-15 11 0 14 5 10 12 -5 7 0 9 14 6 20 -5 40 17 27 30 -3 3 -5 0 -5 -6 0 -7
-10 -12 -22 -12 -19 0 -20 2 -8 10 9 6 10 10 3 10 -6 0 -15 -5 -18 -10 -5 -8
-11 -7 -21 1 -12 10 -13 9 -8 -5z"/>
<path d="M2590 931 c-7 -15 -7 -21 0 -21 12 0 25 28 17 36 -3 3 -10 -4 -17
-15z"/>
<path d="M1854 932 c-6 -4 -13 -15 -17 -24 -3 -10 -13 -18 -22 -18 -8 0 -15
-4 -15 -9 0 -19 36 1 52 30 18 31 19 32 2 21z"/>
<path d="M2620 930 c0 -5 5 -10 10 -10 6 0 10 5 10 10 0 6 -4 10 -10 10 -5 0
-10 -4 -10 -10z"/>
<path d="M1551 913 c-1 -13 -6 -23 -12 -23 -6 0 -8 7 -4 18 4 12 3 14 -5 6
-17 -17 -2 -60 25 -72 20 -9 23 -9 18 3 -3 8 -9 12 -14 9 -5 -3 -9 4 -9 15 0
10 4 21 9 23 4 2 5 12 0 23 -7 19 -8 19 -8 -2z"/>
<path d="M1636 914 c-8 -22 -4 -25 11 -9 7 8 9 16 4 19 -5 3 -12 -1 -15 -10z"/>
<path d="M1586 887 c3 -10 9 -15 12 -12 3 3 0 11 -7 18 -10 9 -11 8 -5 -6z"/>
<path d="M1757 880 c-3 -12 -10 -19 -16 -15 -7 3 -8 0 -5 -9 8 -20 -10 -21
-26 -1 -11 13 -14 13 -27 -2 -14 -17 -14 -17 -9 0 3 9 1 17 -4 17 -6 0 -10 -9
-10 -20 0 -21 10 -26 26 -11 5 6 16 4 28 -5 11 -8 14 -14 7 -14 -7 0 -9 -5 -6
-10 4 -6 11 -7 17 -4 6 4 8 2 4 -4 -3 -6 -2 -13 3 -16 5 -4 12 2 15 11 3 10 4
6 2 -9 -4 -32 10 -38 19 -8 4 13 15 20 33 20 21 0 24 2 12 10 -13 9 -13 10 0
10 12 1 11 3 -3 11 -9 6 -16 13 -13 17 2 4 -7 17 -19 30 l-22 24 -6 -22z m39
-58 c2 -10 -5 -12 -24 -7 -33 8 -40 14 -26 23 6 4 14 16 18 27 8 19 9 19 18
-5 6 -14 12 -31 14 -38z"/>
<path d="M2385 892 c-6 -4 -12 -18 -12 -31 -2 -22 -1 -22 18 -6 29 27 24 59
-6 37z"/>
<path d="M2557 879 c7 -7 15 -10 18 -7 3 3 -2 9 -12 12 -14 6 -15 5 -6 -5z"/>
<path d="M2335 858 c-19 -11 -56 -51 -51 -55 1 -2 20 6 41 17 22 11 35 20 31
20 -5 0 -3 7 4 15 15 18 3 19 -25 3z"/>
<path d="M2685 829 c-22 -21 -30 -39 -31 -65 -1 -30 1 -33 9 -18 6 11 15 22
21 26 7 5 4 8 -6 8 -10 0 -18 5 -18 11 0 5 5 7 10 4 6 -3 10 -1 10 5 0 7 10
20 23 30 12 10 20 20 17 23 -3 2 -18 -8 -35 -24z"/>
<path d="M2378 820 c-26 -23 -29 -29 -15 -30 10 0 20 7 23 15 3 8 14 17 25 20
10 4 19 11 19 16 0 17 -19 9 -52 -21z"/>
<path d="M1685 820 c-3 -5 -12 -7 -20 -4 -9 4 -13 -1 -12 -15 1 -12 8 -21 16
-21 8 0 11 3 8 7 -4 3 0 15 10 25 9 10 13 18 10 18 -3 0 -8 -4 -12 -10z"/>
<path d="M1540 811 c0 -5 7 -11 15 -15 8 -3 15 -12 15 -21 0 -8 4 -15 8 -15 4
0 7 12 6 27 0 19 -7 27 -22 30 -12 1 -22 -1 -22 -6z"/>
<path d="M2398 790 c-32 -33 -36 -45 -10 -31 39 23 56 41 46 50 -5 5 -20 -2
-36 -19z"/>
<path d="M1690 791 c0 -6 5 -13 10 -16 6 -3 10 1 10 9 0 9 -4 16 -10 16 -5 0
-10 -4 -10 -9z"/>
<path d="M1293 773 c-3 -10 -8 -21 -10 -25 -2 -5 -1 -8 4 -8 4 0 13 11 20 25
6 14 7 25 2 25 -5 0 -12 -8 -16 -17z"/>
<path d="M1470 780 c0 -5 5 -10 11 -10 5 0 7 5 4 10 -3 6 -8 10 -11 10 -2 0
-4 -4 -4 -10z"/>
<path d="M2280 780 c0 -3 4 -10 8 -17 6 -9 11 -7 20 7 10 16 9 18 -8 17 -11
-1 -20 -4 -20 -7z"/>
<path d="M2611 771 c-13 -10 -21 -24 -18 -32 4 -10 6 -9 6 4 1 9 7 17 15 17 8
0 16 7 20 15 7 19 6 19 -23 -4z"/>
<path d="M1246 764 c-5 -14 -4 -15 9 -4 17 14 19 20 6 20 -5 0 -12 -7 -15 -16z"/>
<path d="M1496 765 c-6 -17 -42 -20 -51 -5 -5 8 -11 8 -19 1 -7 -6 -33 -8 -58
-6 -33 2 -48 -1 -52 -10 -2 -7 -15 -15 -28 -18 -21 -4 -21 -4 3 -6 15 0 32 6
39 14 7 9 18 12 26 7 24 -13 139 2 158 21 14 14 15 17 3 17 -8 0 -17 -7 -21
-15z"/>
<path d="M1715 770 c-4 -6 -14 -9 -24 -5 -12 5 -13 3 -5 -5 17 -17 56 -9 45 9
-6 10 -10 10 -16 1z"/>
<path d="M2420 765 c-20 -24 -6 -28 15 -5 10 11 13 20 8 20 -6 0 -16 -7 -23
-15z"/>
<path d="M1657 753 c10 -29 14 -34 23 -28 6 4 4 14 -3 25 -15 25 -29 26 -20 3z"/>
<path d="M2310 746 c0 -7 -3 -28 -6 -45 -6 -28 -4 -31 17 -31 22 1 23 2 6 14
-15 12 -15 15 -2 26 8 7 15 18 15 24 0 6 -5 4 -10 -4 -8 -13 -10 -13 -10 2 0
9 8 19 18 21 13 4 11 5 -5 6 -13 1 -23 -5 -23 -13z"/>
<path d="M2438 741 c-8 -11 -17 -18 -20 -15 -3 3 -9 1 -13 -5 -3 -6 0 -11 7
-11 9 0 9 -3 -2 -10 -9 -6 -10 -10 -3 -10 6 0 18 8 25 18 7 11 18 21 25 23 8
2 9 9 4 18 -7 10 -12 9 -23 -8z"/>
<path d="M1556 738 c3 -4 3 -8 0 -8 -2 0 -12 -3 -22 -7 -13 -5 -15 -3 -9 8 7
11 6 12 -6 2 -10 -8 -46 -12 -98 -11 -45 0 -86 -3 -91 -8 -5 -5 40 -8 108 -6
67 2 119 8 123 14 4 5 15 7 26 4 13 -4 20 -2 20 8 0 9 -10 14 -28 14 -16 -1
-26 -5 -23 -10z"/>
<path d="M2533 731 c-23 -9 -45 -20 -49 -24 -4 -4 -14 -1 -22 5 -11 10 -13 9
-11 -7 2 -11 0 -26 -4 -32 -13 -21 0 -15 27 12 29 29 58 34 50 8 -3 -10 2 -6
11 10 8 15 18 27 21 27 2 0 1 -12 -2 -27 -4 -16 -5 -26 -2 -23 5 5 29 71 25
69 -1 -1 -21 -9 -44 -18z"/>
<path d="M2582 695 c0 -16 2 -22 5 -12 2 9 2 23 0 30 -3 6 -5 -1 -5 -18z"/>
<path d="M2076 698 c3 -4 11 -5 19 -1 21 7 19 12 -4 10 -11 0 -18 -5 -15 -9z"/>
<path d="M2466 655 c-9 -14 -13 -25 -8 -25 5 0 14 11 20 25 6 14 10 25 8 25
-2 0 -11 -11 -20 -25z"/>
<path d="M2354 663 c3 -4 0 -13 -6 -21 -10 -11 -9 -16 5 -23 9 -6 17 -17 17
-24 0 -8 4 -15 10 -15 5 0 7 6 4 14 -3 8 -1 17 5 21 6 3 11 12 11 18 0 9 -3 8
-8 -1 -5 -7 -16 -10 -26 -6 -17 6 -16 8 4 19 l22 12 -22 6 c-12 3 -19 3 -16 0z"/>
<path d="M2510 659 c0 -5 5 -7 10 -4 6 3 10 8 10 11 0 2 -4 4 -10 4 -5 0 -10
-5 -10 -11z"/>
<path d="M2651 649 c-2 -30 -139 -112 -231 -138 -31 -9 -30 -10 15 -4 85 10
236 108 222 144 -4 10 -6 10 -6 -2z"/>
<path d="M1855 620 c3 -5 11 -10 16 -10 6 0 7 5 4 10 -3 6 -11 10 -16 10 -6 0
-7 -4 -4 -10z"/>
<path d="M1609 575 c-26 -14 -39 -52 -39 -117 0 -34 -7 -35 -37 -6 -13 12 -25
19 -28 16 -8 -8 55 -49 65 -43 6 3 10 22 10 40 0 24 6 38 20 45 14 7 20 7 20
0 0 -5 4 -10 9 -10 5 0 7 9 4 20 -3 11 0 20 6 20 6 0 11 5 11 11 0 6 -13 1
-30 -11 -16 -12 -30 -17 -30 -11 0 19 31 40 68 46 56 10 61 13 17 14 -22 0
-52 -6 -66 -14z"/>
<path d="M1717 573 c-12 -12 -7 -21 16 -26 20 -5 20 -5 5 7 -10 7 -15 16 -11
19 3 4 4 7 1 7 -2 0 -8 -3 -11 -7z"/>
<path d="M1760 556 c0 -2 7 -9 15 -16 13 -11 14 -10 9 4 -5 14 -24 23 -24 12z"/>
<path d="M1500 531 c0 -6 4 -13 10 -16 6 -3 7 1 4 9 -7 18 -14 21 -14 7z"/>
<path d="M1830 499 c42 -41 70 -63 70 -56 0 3 -24 24 -52 48 -40 32 -44 34
-18 8z"/>
<path d="M2100 526 c0 -2 7 -7 16 -10 8 -3 12 -2 9 4 -6 10 -25 14 -25 6z"/>
<path d="M1474 502 c0 -10 6 -19 13 -19 8 0 9 6 2 19 -5 10 -11 18 -12 18 -2
0 -3 -8 -3 -18z"/>
<path d="M2208 503 c12 -2 30 -2 40 0 9 3 -1 5 -23 4 -22 0 -30 -2 -17 -4z"/>
<path d="M2000 489 c0 -5 5 -7 10 -4 6 3 10 8 10 11 0 2 -4 4 -10 4 -5 0 -10
-5 -10 -11z"/>
<path d="M2340 490 c-18 -12 -2 -12 25 0 13 6 15 9 5 9 -8 0 -22 -4 -30 -9z"/>
<path d="M2270 480 c-12 -8 -12 -10 5 -10 11 0 27 5 35 10 12 8 12 10 -5 10
-11 0 -27 -5 -35 -10z"/>
<path d="M2385 483 c-11 -3 -24 -10 -30 -15 -7 -7 -2 -8 15 -3 52 15 64 30 15
18z"/>
<path d="M2295 460 c-8 -13 15 -13 35 0 12 8 11 10 -7 10 -12 0 -25 -4 -28
-10z"/>
<path d="M1222 412 c-13 -9 -6 -42 9 -42 14 0 11 20 -3 20 -7 1 -2 7 12 15 15
8 19 14 10 14 -8 1 -21 -3 -28 -7z"/>
<path d="M1710 400 c0 -5 5 -10 10 -10 6 0 10 5 10 10 0 6 -4 10 -10 10 -5 0
-10 -4 -10 -10z"/>
<path d="M2398 333 c6 -2 18 -2 25 0 6 3 1 5 -13 5 -14 0 -19 -2 -12 -5z"/>
<path d="M2243 323 c26 -2 67 -2 90 0 23 2 2 3 -48 3 -49 0 -68 -1 -42 -3z"/>
</g>
</svg>
